<?xml version="1.0" encoding="UTF-8" standalone="no"?>
<!DOCTYPE svg PUBLIC "-//W3C//DTD SVG 1.1//EN" "http://www.w3.org/Graphics/SVG/1.1/DTD/svg11.dtd">
<svg version="1.1" xmlns="http://www.w3.org/2000/svg" xmlns:xlink="http://www.w3.org/1999/xlink" preserveAspectRatio="xMidYMid meet" viewBox="0 0 470 325" width="470" height="325"><defs><path d="M26.93 197.01C26.93 132.92 79.09 80.76 143.18 80.76C207.28 80.76 259.44 132.92 259.44 197.01C259.44 230.69 245.03 261.07 222.07 282.34C223.45 284.28 234.44 299.82 235.82 301.76C264.78 276.12 283.08 238.66 283.08 197.01C283.08 119.88 220.32 57.11 143.18 57.11C66.05 57.11 3.28 119.88 3.28 197.01C3.28 250.68 33.67 297.38 78.13 320.85C80.72 313.87 83.65 305.68 86.28 298.34C50.88 278.41 26.93 240.45 26.93 197.01Z" id="b3099N6a0U"></path><linearGradient id="gradientb12kthl3gJ" gradientUnits="userSpaceOnUse" x1="143.2" y1="57.13" x2="143.2" y2="320.85"><stop style="stop-color: #479ef7;stop-opacity: 1" offset="0%"></stop><stop style="stop-color: #285fd0;stop-opacity: 1" offset="100%"></stop></linearGradient><path d="M193.17 48.96C193.17 48.96 193.17 48.96 193.17 48.96C193.17 48.96 193.17 48.96 193.17 48.96C193.17 48.96 193.17 48.96 193.17 48.96Z" id="c4O5OpOnZW"></path><path d="M228.78 250.78C228.36 249.57 227.84 248.24 227.24 246.85C226.97 246.21 226.67 245.55 226.36 244.86C226.06 244.22 225.76 243.53 225.46 242.86C224.1 239.96 222.47 236.73 220.59 233.26C220.44 232.96 220.26 232.65 220.11 232.38C219.24 230.75 218.3 229.12 217.3 227.37C216.79 226.49 216.28 225.59 215.7 224.59C214.7 222.9 212.59 220.33 210.05 217.76C209.9 217.61 209.75 217.46 209.6 217.34C208.54 216.31 207.43 215.26 206.25 214.23C206.24 214.22 206.2 214.19 206.13 214.14C206.11 214.12 206.1 214.11 206.1 214.11C205.8 213.84 205.49 213.57 205.16 213.32C205.14 213.31 204.97 213.16 204.95 213.14C204.44 212.72 203.89 212.27 203.38 211.84C203.35 211.82 203.16 211.65 203.14 211.63C202.59 211.21 202.05 210.79 201.51 210.36C201.17 210.12 200.81 209.85 200.48 209.61C199.12 208.61 197.7 207.65 196.28 206.74C195.77 206.41 195.22 206.07 194.68 205.74C193.29 204.9 191.87 204.08 190.42 203.33C189.12 202.63 187.79 201.97 186.43 201.33C184.89 200.58 183.35 199.88 181.78 199.22C181 198.34 170.1 189.04 165.81 186.11C173.81 183.06 180.3 177.62 184.62 173.21C189.36 168.38 194.86 161.22 196.1 155.61C196.19 155.24 196.25 154.85 196.31 154.43C196.34 154.31 196.34 154.22 196.37 154.13C196.37 154.13 196.37 154.13 196.37 154.13C196.4 153.82 196.46 153.55 196.49 153.25C196.49 153.25 196.49 153.25 196.49 153.22C196.49 153.13 196.52 153.01 196.52 152.92C196.55 152.62 196.58 152.31 196.58 152.01C196.58 152.01 196.58 151.98 196.58 151.98C196.58 151.92 196.58 151.86 196.58 151.77C196.61 151.38 196.61 151.04 196.61 150.68C196.61 150.65 196.61 150.65 196.61 150.62C196.67 143.31 194.11 133.16 189.43 122.11C189.27 121.75 189.12 121.39 188.97 121.02C188.97 120.33 188.91 119.51 188.7 118.67C188.73 118.64 188.79 118.61 188.82 118.58C194.41 114.5 197.31 105.26 197.82 103.45C198.55 100.91 199.18 97.28 199.42 94.02C199.81 88.89 199.3 85.26 197.82 82.61C196.92 81 195.22 78.8 190 76.17C189.94 76.14 189.91 76.11 189.85 76.08C190.12 74.87 190.33 73.3 190.06 71.52C190.36 70.4 190.69 69.32 191 68.26C191.6 66.11 192.17 64.12 192.75 62.04C192.84 61.67 192.93 61.31 192.99 60.92C193.02 60.83 193.02 60.74 193.02 60.62C193.05 60.35 193.08 60.04 193.11 59.77C193.11 59.68 193.11 59.62 193.14 59.53C193.14 59.53 193.14 59.5 193.14 59.5C193.17 59.17 193.17 58.81 193.14 58.44C193.14 58.35 193.14 58.26 193.14 58.17C193.14 57.93 193.11 57.66 193.08 57.42C193.08 57.33 193.05 57.26 193.05 57.17C193.05 57.17 193.05 57.17 193.05 57.14C193.02 56.84 192.96 56.51 192.9 56.21C192.9 56.12 192.87 56.06 192.84 55.97C192.78 55.75 192.75 55.51 192.69 55.3C192.66 55.21 192.66 55.12 192.63 55.06C192.54 54.79 192.48 54.52 192.38 54.24C192.35 54.18 192.32 54.09 192.32 54.03C192.26 53.82 192.17 53.64 192.11 53.43C192.08 53.34 192.05 53.28 192.02 53.19C192.02 53.16 191.99 53.16 191.99 53.13C192.05 53.01 192.11 52.89 192.14 52.76C192.17 52.7 192.2 52.64 192.2 52.58C192.2 52.58 192.2 52.58 192.2 52.58C192.29 52.37 192.38 52.13 192.48 51.89C192.51 51.83 192.54 51.74 192.57 51.68C192.66 51.38 192.75 51.13 192.78 50.95C192.81 50.86 192.84 50.8 192.84 50.71C192.93 50.41 192.96 50.17 193.02 49.99C193.05 49.9 193.05 49.8 193.08 49.71C193.11 49.5 193.17 49.26 193.2 48.99C193.23 48.87 193.23 48.78 193.23 48.69C193.26 48.48 193.29 48.23 193.29 47.96C193.29 47.84 193.29 47.75 193.32 47.63C193.32 47.39 193.35 47.15 193.32 46.91C193.32 46.78 193.32 46.69 193.32 46.57C193.32 46.33 193.29 46.12 193.29 45.88C193.29 45.76 193.26 45.64 193.26 45.52C193.23 45.3 193.2 45.06 193.17 44.85C193.14 44.73 193.14 44.61 193.11 44.52C193.08 44.31 193.02 44.1 192.99 43.89C192.96 43.76 192.93 43.64 192.9 43.55C192.84 43.34 192.78 43.13 192.72 42.95C192.69 42.83 192.66 42.71 192.6 42.62C192.54 42.41 192.45 42.22 192.38 42.04C192.32 41.92 192.29 41.8 192.23 41.71C192.23 41.71 192.23 41.71 192.23 41.71C192.2 41.62 192.17 41.56 192.14 41.47C191.63 40.23 190.94 39.11 190.21 38.15C190.18 36.27 189.76 34.19 188.79 31.83C184.74 21.99 171.82 12.11 164.63 8.22C161.52 6.52 145.3 -1.87 130.38 -1.87C127.15 -1.87 124.16 -1.45 121.5 -0.66C118 0.39 115.64 2.39 114.55 5.26C114.31 5.86 114.16 6.46 114.07 7.1C104.19 10.54 96.58 15.4 91.42 19.42C87.01 22.86 82.93 26.85 80.15 30.35C75.74 30.78 71.94 31.8 68.82 33.47C63.9 36.06 61.09 39.99 61.09 44.22C61.09 45.52 61.36 46.78 61.94 47.96C62 48.11 62.06 48.23 62.12 48.39C63.66 51.41 66.38 52.73 68.46 53.4C68.46 53.4 68.46 53.43 68.46 53.43C68.89 54.61 69.52 55.66 70.37 56.6C70.7 56.99 71.09 57.36 71.51 57.69C72.96 58.87 74.65 59.68 77.07 60.26C77.76 65.72 78.76 71.79 79.82 77.89C79.46 78.32 79.12 78.74 78.82 79.16C75.92 81 73.02 83.99 70.76 87.62C68.64 90.97 66.23 96.17 66.83 101.78C67.34 106.59 69.43 111.99 72.69 117.01C74.05 119.12 76.5 122.44 79.73 125.16C79.91 125.7 80.09 126.16 80.24 126.46C80.3 126.58 80.36 126.7 80.42 126.79C79.24 133.8 78.7 141.44 80.39 148.81C80.82 150.62 81.42 152.49 82.23 154.31C84.98 160.68 89.76 166.63 96.19 171.73C96.4 172.19 96.67 172.64 97 173.06C97.91 174.3 99.12 175.54 100.66 176.75C100.45 177.8 100.24 178.86 100.15 179.86C99.84 180.22 98.09 182.06 97.49 182.64C97.28 182.85 97.03 183.06 96.82 183.27C96.49 183.57 96.16 183.94 95.83 184.27C94.8 185.33 93.74 186.5 92.69 187.74C92.69 187.74 92.69 187.77 92.65 187.77C92.53 187.92 92.38 188.07 92.26 188.22C92.25 188.24 92.2 188.3 92.11 188.41C92.09 188.44 92.08 188.46 92.08 188.47C92.08 188.47 92.05 188.5 92.05 188.5C91.93 188.65 91.78 188.8 91.66 188.98C91.65 188.99 91.61 189.04 91.54 189.13C91.5 189.17 91.48 189.19 91.48 189.19C91.48 189.19 91.48 189.19 91.45 189.22C91.44 189.22 91.42 189.25 91.42 189.25C91.39 189.28 84.05 197.35 83.9 197.41C83.47 197.68 83.02 197.95 82.57 198.25C82.36 198.4 82.11 198.52 81.9 198.68C76.16 202.45 70.58 207.13 66.86 210.36C66.68 210.51 58.92 217.76 58.53 218.16C58.53 218.16 57.02 219.55 56.65 219.82C53.15 222.47 45.9 228.03 40.74 239.75C40.37 240.57 40.04 241.41 39.68 242.32C39.68 242.33 39.65 242.4 39.65 242.41C39.59 242.53 39.56 242.65 39.5 242.77C39.47 242.86 39.44 242.95 39.41 243.04C38.98 244.19 38.62 245.34 38.29 246.46C37.96 247.6 62.3 281.04 65.29 281.31C70.46 281.76 139.11 286.72 147.02 287.11C147.17 287.11 147.32 287.11 147.47 287.11C149.92 287.11 152.28 286.05 153.88 284.18C155.66 282.13 156.32 279.32 155.69 276.66C155.69 276.63 155.69 276.63 155.69 276.6C155.69 276.57 155.69 276.57 155.69 276.54C155.69 276.54 155.69 276.54 155.69 276.54C155.69 276.51 155.69 276.48 155.66 276.45C155.66 276.44 155.63 276.39 155.63 276.39C155.63 276.39 155.63 276.36 155.63 276.36C155.62 276.35 155.6 276.28 155.6 276.27C155.6 276.27 155.6 276.24 155.6 276.24C155.6 276.24 155.6 276.21 155.6 276.21C155.6 276.2 155.59 276.15 155.57 276.05L155.54 275.99L155.51 275.9L155.51 275.84L155.48 275.78L155.48 275.78L155.48 275.75L155.48 275.75L155.42 275.57L155.42 275.54L155.42 275.51C155.38 275.38 155.36 275.31 155.36 275.3C155.36 275.3 155.36 275.27 155.36 275.27C155.36 275.27 155.36 275.26 155.36 275.24L155.33 275.18C155.29 275.03 155.27 274.95 155.27 274.94C155.27 274.94 155.27 274.94 155.27 274.91C155.27 274.91 155.27 274.91 155.27 274.91L155.27 274.88L155.17 274.57L155.17 274.57L155.14 274.51C155.09 274.3 155.06 274.18 155.05 274.15C155.05 274.15 155.05 274.15 155.05 274.15C155.05 274.15 155.05 274.12 155.05 274.12C154.72 272.97 154.39 271.74 154 270.5C156.6 270.5 177.46 270.5 180.06 270.5C181.51 271.74 183.35 272.46 185.26 272.52C185.35 272.52 187.37 272.61 190.48 272.61C191.36 272.61 192.26 272.61 193.14 272.58C193.65 272.58 194.17 272.55 194.71 272.55C195.25 272.55 195.8 272.52 196.37 272.52C196.43 272.52 196.49 272.52 196.58 272.52C197.7 273.06 198.94 273.34 200.21 273.34C200.43 273.34 202.25 273.34 202.47 273.34C204.25 273.34 205.98 272.76 207.4 271.77C209.42 271.52 211.32 271.25 213.01 270.92C213.32 270.86 213.65 270.8 213.95 270.74C218.63 269.74 225.19 267.81 228.33 262.46C230.05 259.38 230.41 255.97 229.41 252.71C229.23 252.07 228.99 251.44 228.78 250.78ZM147.17 277.02L147.17 277.02L147.17 277.02L147.17 277.02Z" id="a1pCb3D9d8"></path><path d="M147.32 281.28C146.57 281.22 72.18 275.09 67.01 274.64C62.57 274.24 56.74 267.3 53.66 263.19C49.83 258.08 45.51 250.9 44.81 246.03C44.81 245.99 44.78 245.76 44.72 245.34C44.87 244.96 44.95 244.75 44.96 244.7C49.59 232.41 56.5 227.13 60.22 224.29C60.91 223.74 61.64 223.2 61.91 222.9C63.69 220.9 78.91 205.92 91.39 199.64C92.59 196.8 95.61 193.03 97.06 191.31C100.54 187.2 103.35 184.66 105.49 183.78C107.51 182.24 111.56 182.09 118.93 182.4C119.93 182.43 121.14 182.49 121.53 182.46C122.34 182.27 124.31 182.15 137.48 184.15C143.7 185.08 149.77 186.11 150.77 186.26C152.7 186.38 156.87 186.87 159.07 188.74C161.67 189.92 165.69 193 168.71 195.65C173.12 199.49 174.96 201.82 175.8 203.18C197.22 210.39 209.24 224.8 210.75 227.4C217.76 239.45 222.07 248.27 223.95 254.37C224.58 256.36 224.22 258.39 222.95 260.02C219.42 264.64 209 265.82 201.48 266.33C193.26 266.87 185.83 266.6 185.53 266.6C185.46 266.6 185.14 266.59 184.56 266.57C184.13 266.19 183.89 265.98 183.84 265.94C183.38 265.54 182.93 265.09 182.48 264.58C178.84 264.58 149.78 264.58 146.14 264.58C148.83 272.31 150.13 277.63 150.19 277.87C150.25 278.11 150.55 279.35 151.1 281.58C148.83 281.4 147.57 281.3 147.32 281.28ZM57.92 259.81C62.97 266.57 66.62 269.11 67.5 269.23C71.97 269.62 128.48 274.27 143.91 275.54C143.06 272.61 141.67 268.11 139.74 262.83C139.65 262.58 139.2 261.36 138.38 259.17L184.99 259.17C185.47 259.77 185.75 260.1 185.8 260.17C186.13 260.56 186.43 260.92 186.74 261.23C200.3 261.62 216.06 260.05 218.6 256.73C218.75 256.51 218.84 256.36 218.72 255.97C218.72 255.97 218.72 255.97 218.72 255.97C216.97 250.35 212.71 241.65 206.01 230.12C204.74 227.91 193.17 214.44 172.96 207.98C172.87 207.95 172.37 207.78 171.48 207.49C171.3 206.62 171.2 206.14 171.18 206.04C170.16 203.78 159.98 194.78 156.65 193.6C156.61 193.58 156.38 193.5 155.96 193.36C155.69 193.05 155.54 192.88 155.51 192.85C154.93 192.36 152.4 191.79 150.28 191.67C150.25 191.66 150.01 191.64 149.98 191.64C138.05 189.64 124.61 187.65 122.53 187.8C121.86 187.92 121.05 187.92 118.69 187.83C116.64 187.74 110.57 187.5 108.87 188.1C108.85 188.14 108.72 188.32 108.48 188.65C107.88 188.77 107.55 188.84 107.48 188.86C106.88 189.1 104.59 190.82 101.23 194.81C98.21 198.37 96.52 201.18 96.31 201.97C96.3 202.06 96.24 202.55 96.13 203.42C95.29 203.8 94.83 204.01 94.74 204.05C83.81 209.16 68.4 223.77 65.93 226.52C65.32 227.19 64.54 227.79 63.51 228.58C60.28 231.05 54.36 235.55 50.31 245.91C51.04 249.11 54 254.58 57.92 259.81ZM171.18 206.14C171.18 206.14 171.18 206.14 171.18 206.14C171.18 206.14 171.18 206.14 171.18 206.14ZM155.51 192.88C155.51 192.88 155.51 192.88 155.51 192.88C155.51 192.88 155.51 192.88 155.51 192.88ZM122.59 187.8C122.62 187.8 122.65 187.8 122.68 187.77C122.65 187.77 122.62 187.77 122.59 187.8Z" id="aaNwzfJDN"></path><path d="M107.85 185.84C107.84 185.81 107.79 185.69 107.7 185.48C107.68 185.24 107.67 185.11 107.67 185.08C106.52 173.12 107.64 163.16 107.67 162.76C107.69 162.58 107.79 161.69 107.97 160.08L161.73 165.63C161.09 167.55 160.74 168.62 160.67 168.83C159.43 172.58 156.41 183.39 157.11 188.47C157.11 188.48 157.12 188.58 157.14 188.74C157.14 188.9 157.14 188.99 157.14 189.01C156.44 201.63 151.16 206.26 147.65 209.34C147.38 209.58 147.14 209.79 146.87 210.03C146.82 210.07 146.6 210.27 146.2 210.64C145.68 210.69 145.39 210.72 145.33 210.73C144.3 210.73 143.24 210.79 142.22 210.79C126.39 210.79 113.13 198.64 107.85 185.84ZM143.94 205.29C143.97 205.26 144.03 205.2 144.06 205.17C147.17 202.42 151.07 199.04 151.67 188.89C151.31 185.75 151.82 181.13 153.24 175.21C153.66 173.36 154.12 171.67 154.51 170.34C150.34 169.91 117 166.46 112.83 166.03C112.62 169.62 112.35 176.48 113.04 184.12C119.35 199.04 133.16 205.95 143.94 205.29Z" id="e1eefEG5gH"></path><path d="M153.36 182.49C134.3 182.49 117.66 178.44 105.22 170.83C94.95 164.55 87.94 156 85.95 147.39C84.08 139.3 85.32 130.66 86.92 122.93C80.12 119.78 73.33 108.94 72.48 101.06C71.72 94.08 78.01 85.87 82.51 83.51C83.65 82.91 84.95 82.57 86.37 82.51C86.34 82.3 86.31 82.09 86.25 81.85C84.62 72.46 82.96 62.76 82.17 55.03C77.16 54.49 74.17 53.46 73.6 50.74C73.42 49.9 73.54 49.11 73.87 48.39C71.39 48.11 68.92 47.54 67.77 46.45C67.1 45.82 66.74 45 66.74 44.13C66.74 41.05 71.21 36.21 83.08 35.82C84.92 33.04 89.03 28.39 94.89 23.83C100.51 19.45 109.24 14.04 120.77 10.9C119.99 10.21 119.54 9.33 119.6 8.22C119.75 5.8 122.25 5.01 123.1 4.77C128.32 3.17 135.21 3.53 143.55 5.83C152.18 8.22 159.22 11.78 161.82 13.2C169.67 17.46 181.69 27.58 183.93 35.46C184.38 37.06 184.44 38.54 184.17 39.9C187.25 43.07 189.21 47.12 185.38 52.92C187.1 55.72 187.67 58.23 187.1 60.44C186.56 62.46 185.98 64.45 185.38 66.57C183.75 72.19 182.09 77.98 180.64 86.02C180.39 87.29 180.15 88.52 179.94 89.76C178.19 98.91 176.65 106.89 179.97 118.82C180.24 118.88 180.49 118.94 180.73 119C180.81 119.02 181.2 119.14 181.9 119.36C182.21 120.03 182.38 120.41 182.42 120.48C188.85 134.46 191.93 147.39 190.42 154.22C189.49 158.38 184.41 165.51 178.31 171.13C168.19 180.43 159.49 182.49 153.82 182.49C153.66 182.49 153.51 182.49 153.36 182.49ZM85.07 88.28C82.05 89.88 77.46 96.2 77.92 100.42C78.28 103.87 80.24 108.37 83.02 112.17C85.95 116.19 88.85 118.15 90.42 118.34C90.62 118.36 91.62 118.47 93.41 118.67C93.03 120.44 92.82 121.43 92.78 121.63C91.08 129.36 89.45 138.27 91.27 146.15C92.9 153.25 99.18 160.71 108.09 166.18C119.69 173.27 135.36 177.05 153.42 177.05C153.43 177.05 153.48 177.05 153.48 177.05C153.6 177.05 153.73 177.05 153.85 177.05C169.43 177.05 184.08 157.69 185.11 152.98C186.1 148.51 184.29 137.88 178.1 124.04C178.07 124.04 178.04 124.04 178.01 124.04C177.87 124.05 177.17 124.07 175.92 124.1C175.56 122.91 175.36 122.24 175.32 122.11C170.91 107.89 172.72 98.55 174.63 88.68C174.87 87.47 175.11 86.23 175.32 84.99C176.83 76.69 178.61 70.46 180.18 65C180.79 62.91 181.33 60.98 181.87 58.99C182.06 58.32 181.63 56.75 179.91 54.46C179.83 54.34 179.4 53.78 178.64 52.76C179.44 51.79 179.88 51.24 179.97 51.13C183.32 46.97 182.42 45.49 179.25 42.65C179.14 42.55 178.58 42.05 177.59 41.17C178.26 40.03 178.63 39.39 178.7 39.26C178.82 39.05 179.19 38.45 178.76 36.94C177.07 30.9 166.08 21.66 159.28 17.97C154.18 15.19 147.78 12.62 142.16 11.08C137.29 9.76 133.01 9.15 129.41 9.27C129.62 9.36 129.8 9.45 130.02 9.57C130.51 9.83 133 11.08 137.48 13.35C132.53 14.15 129.78 14.59 129.23 14.68C115.22 16.94 104.86 23.14 98.64 27.91C91.54 33.34 87.73 38.51 87.28 39.54C87.24 39.65 87.03 40.24 86.64 41.29C85.5 41.29 84.87 41.29 84.74 41.29C79.76 41.29 76.53 42.16 74.56 43.04C76.41 43.25 78.73 43.37 80.85 43.25C81.64 43.21 85.61 42.98 92.75 42.59C86.49 46.05 83.02 47.97 82.33 48.36C81.6 48.75 81.03 49.08 80.57 49.38C81.54 49.56 82.96 49.74 84.95 49.9C85.11 49.91 85.87 49.97 87.25 50.08C87.36 51.45 87.42 52.22 87.43 52.37C88.06 60.16 89.91 70.74 91.66 80.97C91.9 82.42 92.14 83.84 92.38 85.23C92.43 85.51 92.67 86.92 93.11 89.46C90.63 88.77 89.25 88.39 88.97 88.31C88.18 88.04 87.46 87.92 86.83 87.92C86.13 87.92 85.56 88.04 85.07 88.28ZM87.25 39.45C87.25 39.45 87.25 39.45 87.25 39.45C87.25 39.45 87.25 39.45 87.25 39.45ZM167.26 117.31L167.2 117.16L157.5 92.9L172.15 114.86L172.27 115.13L167.32 117.43L167.26 117.31Z" id="dvw4VKzJ4"></path><path d="M111.14 182.27C113.34 181.7 153.39 187.02 153.39 187.02C153.39 187.02 156.05 189.28 157.56 191.03C159.07 192.79 191.3 261.86 191.3 261.86C187.1 261.86 166.08 261.86 128.26 261.86L103.38 193.06C107.08 186.25 109.67 182.66 111.14 182.27Z" id="c2t6OOuJv5"></path><path d="M156.59 190.64C155.66 194.78 152.85 202.12 146.84 206.01C147.71 206.5 153.88 209.82 159.34 216.22C159.74 216.68 160.79 218.7 161.22 217.16C162.48 212.6 161.19 205.98 161.19 205.98C161.37 205.58 162.82 202.37 163 201.97C161.55 198.98 160.31 196.41 159.37 194.54C158.68 193.15 158.07 191.67 156.59 190.64Z" id="b2re7AQb29"></path><path d="M162.03 218.37C161.73 219.91 160.31 220.63 159.58 219.7C156.38 215.65 149.56 208.67 145.72 207.13C143.03 208.73 138.05 218.91 136.78 228.76C136.54 230.66 135.57 231.69 133.76 231.05C124.94 227.91 111.32 221.06 114.85 216.52C117.84 219.3 124.91 225.5 131.71 228.55C135.24 230.15 135.03 227.55 135.18 226.49C136.42 218.91 140.07 210.27 143.24 207.19C125 208.31 112.59 194.33 108.24 186.11C107.03 186.56 106.46 188.77 104.22 195.29C105.83 199.73 113.85 221.92 128.29 261.86C166.1 261.86 187.1 261.86 191.3 261.86C191.27 261.89 173.81 224.5 163.99 204.05C164.02 207.52 163.24 212.15 162.03 218.37Z" id="cVQYPNkFt"></path><path d="M146.05 227.55C145.9 233.56 149.44 250.44 149.44 250.44C151.52 250.5 168.19 250.96 170.28 251.02C170.28 251.02 157.2 227.76 155.3 224.47C156.78 220.6 156.17 216.83 156.32 215.92C153.79 212.57 146.39 206.56 145.12 207.13C141.52 210.64 139.2 218.67 139.2 218.67C140.57 220.45 138.84 222.9 146.05 227.55Z" id="a8OsRnUn4"></path><linearGradient id="gradientc2E5YpbX9O" gradientUnits="userSpaceOnUse" x1="147.47" y1="214.22" x2="163.41" y2="261.23"><stop style="stop-color: #479ef7;stop-opacity: 1" offset="0%"></stop><stop style="stop-color: #285fd0;stop-opacity: 1" offset="100%"></stop></linearGradient><path d="M93.59 201.57C81.72 207.13 65.96 222.41 63.93 224.68C61.88 226.94 51.19 232.71 46.5 248.69C47.62 256.54 60.19 273.76 65.41 274.21C70.64 274.67 147.59 278.53 147.59 278.53C147.59 278.53 141.52 253.86 128.81 233.53C116.09 213.2 111.53 203.51 107.12 186.14C104.07 186.26 93.92 198.64 93.59 201.57Z" id="b5mdrTDBJH"></path><path d="M173.78 205.44C195.07 212.27 206.97 226.43 208.36 228.82C211.41 234.1 218.72 246.82 221.32 255.25C224.49 265.45 185.59 263.97 185.59 263.97C176.08 255.52 159.34 210.85 157.53 191.09C161.43 192.48 173.18 202.63 173.78 205.44Z" id="a3JyMZJBi4"></path><path d="M151.91 250.47C151.55 247.57 148.86 233.92 147.5 227.55C150.52 227.19 153.42 226.28 155.3 224.53C155.3 224.53 155.75 223.14 155.87 222.41C154.78 224.17 148.71 226.01 146.48 225.1C144.03 224.05 140.86 220.24 140.13 215.86C139.53 217.49 139.11 218.88 139.11 218.88C139.11 218.88 140.19 225.28 146.02 227.85C145.99 229.06 146.11 230.45 146.33 232.32C146.39 232.74 146.42 233.2 146.48 233.65C146.51 233.8 146.51 233.95 146.54 234.1C146.63 234.71 146.72 235.34 146.81 235.98C146.84 236.13 146.87 236.31 146.87 236.46C147.87 243.16 149.38 250.41 149.38 250.41C149.39 250.41 149.45 250.42 149.56 250.44C150.97 250.46 151.76 250.47 151.91 250.47Z" id="a10VZ028Fa"></path><path d="M95.98 207.1C98.03 203.78 99.39 198.61 104.16 195.32C107.3 213.75 126.15 231.84 133.4 246.94C133.58 246.88 135 246.42 135.18 246.37C135.18 246.37 135.3 246.18 135.51 245.91C133.52 241.77 131.25 237.61 128.75 233.59C116.03 213.29 111.5 203.54 107.09 186.17C104.04 186.29 93.89 198.68 93.56 201.6C81.69 207.16 65.93 222.44 63.9 224.71C61.85 226.98 51.16 232.74 46.47 248.72C46.6 249.66 46.9 250.71 47.32 251.89C47.32 251.89 47.32 251.89 47.32 251.89C48.2 249.02 53.51 234.68 62.66 227.55C64.02 228.18 66.74 230.93 70.15 235.46C69.01 233.08 67.07 228.33 65.38 226.64C66.53 225.5 84.41 207.1 95.98 207.1Z" id="cf5EC99Y"></path><path d="M174.41 205.38C171.7 201.39 161.43 192.48 157.56 191.09C158.95 206.38 169.28 236.58 178.31 253.37C178.39 253.44 178.82 253.77 179.58 254.37C179.65 251.74 179.69 250.28 179.7 249.99C169.73 231.05 163.42 208.13 161.94 199.13C166.44 199.4 176.62 208.28 178.19 211.21C179.73 212.69 178.4 209.79 178.4 209.79C189.55 213.69 203.83 225.19 205.43 227.55C207.03 229.94 217.18 248.18 221.35 255.21C218.72 246.79 211.41 234.07 208.36 228.79C206.97 226.4 195.5 213.08 174.41 205.38Z" id="dKhlQEEt5"></path><path d="M202.47 264.73C202.25 264.73 200.43 264.73 200.21 264.73C200.21 264.73 190.78 239.21 186.95 231.05C195.34 244.76 199.37 257.99 202.47 264.73Z" id="b4T0w2HMI"></path><path d="M146.08 227.64C146.27 231.08 148.38 245.4 149.22 249.48C147.56 249.51 146.84 249.57 146.84 249.57C145.69 239.51 145 233.65 144.82 229.15C141.07 225.43 137.57 221.48 137.99 219.12C138.44 216.74 138.35 215.95 138.35 215.95C139.56 222.99 144.72 226.98 146.08 227.64Z" id="egebww5Se"></path><path d="M175.41 251.86C175.71 251.86 177.71 252.41 176.77 250.44C169.1 234.44 155.93 193.27 158.07 189.92C156.5 189.95 156.5 189.95 156.5 189.95C158.07 206.01 169.82 245.67 175.41 251.86Z" id="a3UjyGh5s"></path><path d="M156.75 224.5C158.23 219.12 157.56 215.5 157.56 215.5C157.4 215.41 156.09 214.68 155.93 214.59C156.35 216.56 156.23 223.02 155.17 224.5C155.14 224.5 170.31 251.05 170.31 251.05C170.45 251.01 171.16 250.83 172.45 250.5C165.12 236.87 159.89 228.2 156.75 224.5Z" id="f2Tx1fie1b"></path><path d="M137.17 245.91C136.66 245.52 133.61 244.04 132.85 242.41C128.78 233.59 119.48 219.27 114.43 207.92C109.6 196.98 107.3 189.01 106.67 185.05C108.27 184.45 108.27 184.45 108.27 184.45C108.27 197.29 131.13 233.59 137.17 245.91Z" id="g2ZVeZS0bb"></path><path d="M110.11 182.82C108.99 170.98 110.11 161.04 110.11 161.04C114.88 161.53 153.06 165.47 157.83 165.97C157.83 165.97 153.24 180.01 154.18 186.81C153.48 199.22 148.2 202.87 144.82 205.95C128.87 207.55 115.31 195.41 110.11 182.82Z" id="a3R3C3vD9z"></path><path d="M110.11 176.99C110.63 161.31 137.51 167.26 137.51 167.26C138.62 167.64 144.2 169.51 154.24 172.88L153.6 182.88C127.55 183.78 113.05 181.82 110.11 176.99Z" id="bChMso19z"></path><path d="M129.96 203.51C130.29 203.66 130.65 203.78 130.98 203.93C130.65 203.78 130.32 203.66 129.96 203.51Z" id="c5wWcwAMj"></path><path d="M131.16 203.99C131.5 204.11 131.83 204.26 132.19 204.38C131.86 204.26 131.5 204.14 131.16 203.99Z" id="c1F07IN2lc"></path><path d="M125.58 201.15C125.91 201.36 126.21 201.54 126.54 201.73C126.21 201.54 125.91 201.33 125.58 201.15Z" id="f11hRrNk7D"></path><path d="M126.66 201.82C127 202 127.33 202.18 127.66 202.36C127.33 202.18 127 202 126.66 201.82Z" id="bk9N2pwN4"></path><path d="M128.81 202.96C129.14 203.11 129.47 203.27 129.83 203.45C129.47 203.3 129.14 203.11 128.81 202.96Z" id="b13bcKWBNt"></path><path d="M127.72 202.39C128.08 202.6 128.42 202.78 128.78 202.93C128.42 202.75 128.08 202.57 127.72 202.39Z" id="b2W8HD0MxJ"></path><path d="M132.31 204.41C132.67 204.56 133.04 204.69 133.4 204.78C133.04 204.66 132.67 204.53 132.31 204.41Z" id="dg3TslNgg"></path><path d="M138.41 205.86C138.77 205.92 139.17 205.95 139.53 205.98C139.14 205.95 138.77 205.92 138.41 205.86Z" id="awUEVIbNq"></path><path d="M133.46 204.81C133.79 204.9 134.15 205.02 134.55 205.11C134.18 205.02 133.82 204.9 133.46 204.81Z" id="d183F55rdL"></path><path d="M137.17 205.68C137.57 205.74 137.93 205.8 138.29 205.86C137.93 205.8 137.54 205.77 137.17 205.68Z" id="f61TV3HfZd"></path><path d="M135.91 205.44C136.3 205.53 136.63 205.59 136.99 205.65C136.63 205.59 136.27 205.53 135.91 205.44Z" id="dgYXAaFtu"></path><path d="M134.67 205.14C135.03 205.23 135.39 205.32 135.75 205.41C135.39 205.32 135.03 205.26 134.67 205.14Z" id="c1qV5TeG7S"></path><path d="M124.49 200.46C124.82 200.67 125.15 200.88 125.46 201.09C125.12 200.88 124.82 200.67 124.49 200.46Z" id="a2lmYlkjim"></path><path d="M114.13 190.1C114.34 190.43 114.55 190.73 114.79 191.03C114.55 190.73 114.34 190.4 114.13 190.1Z" id="dco7hvIzc"></path><path d="M114.82 191.06C115.52 192.03 116.27 192.97 117.09 193.87C116.3 192.97 115.55 192.03 114.82 191.06Z" id="ek4RX74G"></path><path d="M112.2 187.08C112.77 188.07 113.4 189.07 114.1 190.07C113.43 189.07 112.8 188.07 112.2 187.08Z" id="a1GrECWfS0"></path><path d="M117.12 193.9C117.36 194.2 117.63 194.51 117.9 194.78C117.63 194.51 117.39 194.2 117.12 193.9Z" id="c4OgjtzCD"></path><path d="M110.11 161.04C110.11 161.04 108.99 170.98 110.11 182.82C110.69 184.24 111.41 185.66 112.2 187.08C111.68 174.88 112.5 163.19 112.65 161.31C112.14 161.26 110.37 161.07 110.11 161.04Z" id="c17BBlVKxU"></path><path d="M139.62 206.01C140.01 206.01 140.38 206.04 140.77 206.07C140.38 206.04 140.01 206.04 139.62 206.01Z" id="f3GiQGdhQk"></path><path d="M118.78 195.68C118.51 195.41 118.24 195.14 117.96 194.84C118.24 195.11 118.51 195.41 118.78 195.68Z" id="c5d1RIyDl"></path><path d="M122.53 199.04C123.16 199.52 123.79 199.97 124.46 200.43C123.79 199.97 123.16 199.52 122.53 199.04Z" id="e1HpOqyVd"></path><path d="M121.56 198.22C121.86 198.49 122.16 198.74 122.43 198.95C122.13 198.71 121.83 198.46 121.56 198.22Z" id="bawWSvaqVR"></path><path d="M142.07 206.1C141.7 206.07 141.34 206.07 140.95 206.07C141.31 206.07 141.7 206.1 142.07 206.1Z" id="b1Lfytjh6f"></path><path d="M120.59 197.41C120.89 197.68 121.17 197.92 121.47 198.16C121.17 197.92 120.89 197.68 120.59 197.41Z" id="h3v8yFDEFX"></path><path d="M118.78 195.72C119.35 196.29 119.96 196.83 120.53 197.38C119.93 196.83 119.35 196.29 118.78 195.72Z" id="a2PBmgoVH"></path><path d="M150.7 199.52C150.8 199.43 150.86 199.34 150.89 199.25C150.83 199.34 150.77 199.43 150.7 199.52Z" id="a2Rk0zKznK"></path><path d="M149.71 201.03C149.77 200.94 149.83 200.88 149.89 200.79C149.83 200.88 149.77 200.94 149.71 201.03Z" id="b218ipxX4W"></path><path d="M150.01 200.64C150.1 200.49 150.22 200.34 150.31 200.19C150.22 200.34 150.1 200.49 150.01 200.64Z" id="a8qrNhRiD"></path><path d="M149.29 201.6C149.38 201.45 149.47 201.33 149.59 201.21C149.5 201.33 149.38 201.48 149.29 201.6Z" id="d5PLAoU1NV"></path><path d="M148.95 201.97C149.01 201.91 149.07 201.82 149.13 201.76C149.07 201.82 149.01 201.91 148.95 201.97Z" id="d8wlf5lQl"></path><path d="M148.65 202.33C148.71 202.27 148.77 202.18 148.83 202.12C148.77 202.18 148.71 202.27 148.65 202.33Z" id="a1awuJ3yPt"></path><path d="M150.43 200C150.49 199.91 150.55 199.82 150.61 199.73C150.55 199.82 150.49 199.91 150.43 200Z" id="b1tHTd21r0"></path><path d="M152.31 196.35C152.34 196.26 152.37 196.14 152.43 196.02C152.4 196.14 152.34 196.23 152.31 196.35Z" id="b1BA4WfRwC"></path><path d="M151.01 199.04C151.1 198.89 151.19 198.71 151.28 198.52C151.19 198.71 151.1 198.86 151.01 199.04Z" id="c1e048XvT9"></path><path d="M148.2 202.81C148.29 202.69 148.41 202.6 148.5 202.48C148.41 202.6 148.29 202.69 148.2 202.81Z" id="frs38NUhm"></path><path d="M152.03 196.98C152.09 196.86 152.12 196.74 152.18 196.65C152.15 196.77 152.09 196.86 152.03 196.98Z" id="dqFJrXwYN"></path><path d="M144.82 205.95C144.39 205.98 144 206.01 143.61 206.04C144 206.01 144.42 205.98 144.82 205.95Z" id="b1TFFsuSHi"></path><path d="M151.4 198.31C151.46 198.22 151.52 198.1 151.55 198.01C151.49 198.1 151.46 198.22 151.4 198.31Z" id="f3g7Iz1E05"></path><path d="M151.67 197.77C151.76 197.59 151.85 197.41 151.91 197.26C151.82 197.44 151.76 197.62 151.67 197.77Z" id="bMt0Lp36W"></path><path d="M144.82 205.92C144.91 205.86 145 205.77 145.12 205.68C145.03 205.77 144.94 205.86 144.82 205.92Z" id="a16uUTvZhJ"></path><path d="M145.18 205.62C145.27 205.53 145.36 205.44 145.45 205.38C145.36 205.47 145.27 205.53 145.18 205.62Z" id="a2EQMW9aGZ"></path><path d="M145.48 205.35C145.63 205.23 145.78 205.11 145.9 204.96C145.75 205.08 145.6 205.2 145.48 205.35Z" id="a4xaiZOlRV"></path><path d="M147.75 203.27C147.68 203.33 147.62 203.39 147.56 203.45C147.62 203.39 147.68 203.33 147.75 203.27Z" id="aFmL0ngGx"></path><path d="M143.43 206.04C143.06 206.07 142.67 206.07 142.28 206.07C142.67 206.07 143.03 206.04 143.43 206.04Z" id="am0zkhEZI"></path><path d="M146.39 204.53C146.48 204.47 146.54 204.41 146.63 204.32C146.54 204.38 146.48 204.47 146.39 204.53Z" id="d3ECeA5kQl"></path><path d="M153.09 165.48C152.52 170.44 150.55 189.19 152.61 195.47C152.61 195.47 152.61 195.47 152.61 195.47C153.39 193.18 153.97 190.34 154.18 186.81C153.24 180.01 157.83 165.97 157.83 165.97C156.88 165.87 153.57 165.53 153.09 165.48Z" id="b3oAHpWnST"></path><path d="M146.05 204.84C146.11 204.81 146.17 204.75 146.23 204.69C146.17 204.75 146.11 204.78 146.05 204.84Z" id="bgqTtCpx8"></path><path d="M147.11 203.87C147.17 203.81 147.23 203.78 147.29 203.72C147.23 203.78 147.17 203.81 147.11 203.87Z" id="a7oyxcTPP5"></path><path d="M146.81 204.17C146.87 204.11 146.93 204.08 146.96 204.02C146.9 204.08 146.84 204.11 146.81 204.17Z" id="ap8WVQXKW"></path><path d="M147.87 203.15C147.93 203.08 147.99 203.02 148.05 202.96C147.99 203.02 147.93 203.08 147.87 203.15Z" id="feuRtq4OV"></path><path d="M92.59 107.82C92.26 116.67 173.45 122.9 173.45 122.9C173.45 122.9 149.65 90.31 180.52 54.85C186.92 48.08 185.44 44.67 181.09 40.77C184.99 34.01 169.55 20.57 160.61 15.74C151.67 10.9 134.55 4.32 123.98 7.52C119.81 8.79 124.79 10.09 128.84 12.11C100.87 16.64 85.71 36.12 84.77 38.66C73.11 38.66 69.55 43.01 69.55 44.28C69.55 45.55 76.44 46.33 81.03 46.06C73.63 50.14 74.99 51.95 84.77 52.7C86.13 69.38 92.93 98.98 92.59 107.82Z" id="a8W3OS3Rt"></path><linearGradient id="gradientd4U236GnWQ" gradientUnits="userSpaceOnUse" x1="117.25" y1="88.31" x2="163.17" y2="34.23"><stop style="stop-color: #804726;stop-opacity: 1" offset="20.03%"></stop><stop style="stop-color: #8d502d;stop-opacity: 1" offset="47.23%"></stop><stop style="stop-color: #975732;stop-opacity: 1" offset="79.08%"></stop></linearGradient><path d="M165.53 84.27C161.7 84.2 142.56 83.89 108.09 83.33C97.98 90.11 92.36 93.87 91.24 94.63C92.11 100.33 92.72 105.08 92.59 107.82C92.26 116.67 85.47 132.98 88.7 146.94C91.93 160.89 111.98 179.92 153.48 179.92C170.49 180.25 186.47 159.86 187.85 153.73C189.21 147.6 186.16 135.01 180.06 121.72C177.07 120.84 173.57 122.62 173.57 122.62C173.18 123.11 161.4 106.59 165.53 84.27Z" id="c1bKl447xY"></path><linearGradient id="gradienta19mi1xOW" gradientUnits="userSpaceOnUse" x1="151.56" y1="179.96" x2="121.71" y2="100.37"><stop style="stop-color: #d57008;stop-opacity: 1" offset="12.49%"></stop><stop style="stop-color: #bb5e1d;stop-opacity: 1" offset="65.9%"></stop><stop style="stop-color: #b15725;stop-opacity: 1" offset="99.05000000000001%"></stop></linearGradient><path d="M140.19 114.05C138.59 112.02 127.51 115.74 121.59 121.54C117.39 121.05 109.96 117.19 108.06 114.56C110.57 118.52 118.48 122.44 120.38 122.84C119.14 124.16 118.39 125.34 117.75 126.76C127.99 115.59 138.17 114.38 139.2 115.74C140.22 117.1 146.27 120.18 155.84 121.11C164.18 121.96 167.56 118.55 169.73 116.34C168.34 116.31 165.38 120.39 156.53 119.36C147.68 118.34 141.8 116.07 140.19 114.05Z" id="c61wxTD9FK"></path><path d="M175.59 36.97C179.34 39.96 183.51 44.88 182.66 47.93C181.81 50.98 178.82 53.13 178.58 53.7C178.46 53.97 179.76 54.09 181.18 54.12C186.83 47.81 185.32 44.52 181.09 40.77C184.99 34.01 169.55 20.57 160.61 15.74C151.67 10.9 134.55 4.32 123.98 7.52C123.37 7.7 122.98 7.88 122.74 8.06C137.26 5.53 154.96 14.2 161.03 18.03C167.53 22.08 180.7 33.22 180.15 39.23C179.24 38.78 177.65 37.48 175.59 36.97Z" id="c6x8LHqA0"></path><path d="M152.58 32.65C158.01 33.8 169.25 40.5 176.89 47.39C176.89 47.39 176.89 47.39 176.89 47.39C176.89 47.39 169.67 37.57 159.28 32.14C154.93 29.87 152.12 28.63 145.9 29.39C130.23 31.29 115.07 40.71 110.38 44.37C107.3 46.78 105.58 50.8 105.13 53.67C105.16 53.52 105.22 53.34 105.31 53.16C109.78 41.77 143.97 30.81 152.58 32.65Z" id="chKxVB7Cl"></path><path d="M94.62 27.79C88.52 32.89 85.19 37.51 84.77 38.66C73.11 38.66 69.55 43.01 69.55 44.28C69.55 45.55 76.44 46.33 81.03 46.06C73.63 50.14 74.99 51.92 84.77 52.7C85.56 62.31 88.15 76.17 90.12 87.92C90.31 88.01 91.8 88.71 91.99 88.8C90.9 72.55 87.67 56.27 87.34 53.1C90.66 52.52 92.02 51.65 92.59 50.86C89.06 51.22 78.19 51.38 78.43 49.77C78.67 48.17 83.2 46.51 83.99 46.21C86.89 45.79 89.94 44.79 90.39 44.01C86.67 44.13 73.2 45.15 73.2 43.43C73.2 41.71 82.27 39.2 86.58 39.99C88.4 35.43 90.33 32.2 94.62 27.79Z" id="g1u6RVHZq9"></path><path d="M107.67 113.83C102.89 99.55 101.44 63 105.28 53.19C109.75 41.8 143.94 30.84 152.55 32.68C161.61 34.61 186.68 51.83 184.53 59.89C182.57 67.26 180.06 74.45 178.01 85.69C175.95 96.92 173.21 106.22 177.95 121.57C177.4 121.63 174.72 122.23 173.39 122.96C171.79 121.57 170.67 119.09 169.73 116.4C168.31 116.4 165.35 120.48 156.5 119.45C147.65 118.43 141.76 116.16 140.16 114.14C138.62 111.99 127.51 115.74 121.62 121.54C117 121.02 108.54 116.4 107.67 113.83Z" id="l66ojcaQEQ"></path><path d="M188.19 150.53C185.11 160.29 170 173.55 158.71 175.84C147.41 178.14 116.09 171.76 102.74 161.04C89.39 150.32 89.91 137.45 91.02 131.32C92.11 125.19 91.54 125.19 96.13 121.39C100.72 117.58 98.94 114.83 98.67 108.22C98.67 108.22 95.1 111.15 91.78 113.9C89.97 123.05 86.13 135.73 88.73 146.91C91.96 160.86 112.01 179.89 153.51 179.89C170.49 180.25 186.5 159.86 187.85 153.73C188.07 152.8 188.16 151.74 188.19 150.53Z" id="c15L5CDTF"></path><path d="M83.93 85.9C80.15 87.89 74.74 95.23 75.35 100.76C76.28 109.52 85.22 121.54 91.08 121.08C94.89 120.78 97.97 116.07 98.91 114.53C101.11 110.88 100.54 94.87 100.54 94.87C99.51 89.76 89.36 83.03 83.93 85.9Z" id="b20aKGvSPN"></path><path d="M93.29 99.4C90.99 96.68 89.54 93.96 87.22 95.17C84.89 96.35 81.81 99.82 82.6 101.6C83.11 102.78 83.87 101 85.32 99.64C86.77 98.28 87.85 97.04 88.76 97.74C89.66 98.43 89.39 100 90.42 101.09C88.97 102.54 87.43 105.38 88.55 106.5C89.51 107.43 90.63 107.98 91.17 108.07C89.39 109.52 89.63 112.75 90.57 113.99C91.51 115.22 91.39 112.75 91.11 111.57C90.84 110.39 92.14 109.24 93.5 108.76C94.86 108.28 94.47 107.31 92.14 106.34C89.82 105.38 91.72 103.54 92.59 102.99C93.29 103.17 93.53 103.57 94.59 104.41C95.64 105.23 96.58 106.01 97.03 105.26C97.58 104.29 95.58 102.12 93.29 99.4Z" id="c3FACKOcGq"></path><path d="M116.15 77.71C115.73 80.76 115.4 86.41 115.4 86.41C107.15 85.72 97.94 93.15 97.94 93.15C97.63 92.8 96.08 91.07 93.29 87.95C106.78 81.19 114.4 77.77 116.15 77.71Z" id="cjxCZOQ0u"></path><path d="M85.01 87.41C87.85 85.26 94.89 90.58 97.12 92.27C99.36 93.96 99.99 98.58 100.51 104.59C100.51 104.59 100.51 104.59 100.51 104.59C100.72 99.67 100.54 94.9 100.54 94.9C99.51 89.79 89.36 83.06 83.93 85.93C80.15 87.92 74.74 95.26 75.35 100.79C76.28 109.55 85.22 121.57 91.08 121.11C82.72 118.12 77.64 105.44 76.95 100.33C76.25 95.23 82.17 89.55 85.01 87.41Z" id="e3kVIhVJE4"></path><path d="M183.6 58.29C183.63 61.43 179.67 74.12 175.59 90.34C172.24 103.6 174.23 113.93 176.14 121.93C176.56 121.84 177.65 121.57 178.01 121.54C173.27 106.22 176.05 96.89 178.07 85.66C180.12 74.42 182.63 67.23 184.59 59.86C185.32 57.05 182.78 53.16 178.79 49.2C180.52 50.95 183.57 55.3 183.6 58.29Z" id="b3CRtZAtqh"></path><path d="M178.55 48.96L178.55 48.96L178.55 48.96L178.55 48.96Z" id="g3dQ9AXv"></path><path d="M157.83 61.64C155.05 60.32 154.78 61.22 154.78 61.22C151.85 67.11 150.49 81.49 151.73 85.69C152.82 77.74 152.85 71.88 157.83 61.64Z" id="a1SAobESyk"></path><path d="M160.76 68.71C162.18 68.86 162 70.16 162 70.16C161.03 73.15 160.16 76.69 159.89 80.37C159.55 78.04 159.34 72.19 160.76 68.71Z" id="b205ZK55ul"></path><path d="M130.14 60.53C132.61 60.77 139.53 60.41 143.91 62.67C148.29 64.94 150.89 67.32 153.94 66.42C156.99 65.51 159.61 58.71 158.35 55.63C157.11 52.58 152.58 48.9 143.37 48.96C136.57 48.99 130.11 52.13 128.87 54.06C127.63 56 127.66 60.29 130.14 60.53Z" id="g4jzZECQ14"></path><linearGradient id="gradientb1msKl1JRZ" gradientUnits="userSpaceOnUse" x1="133.92" y1="71.17" x2="146.94" y2="53.31"><stop style="stop-color: #804726;stop-opacity: 1" offset="20.03%"></stop><stop style="stop-color: #8d502d;stop-opacity: 1" offset="47.23%"></stop><stop style="stop-color: #975732;stop-opacity: 1" offset="79.08%"></stop></linearGradient><path d="M130.74 59.17C128.23 58.93 129.23 55 130.47 53.07C130.74 52.64 131.22 52.19 131.92 51.71C130.38 52.49 129.29 53.34 128.84 54.03C127.6 55.97 127.63 60.26 130.11 60.5C132.61 60.74 139.5 60.38 143.88 62.64C148.26 64.91 150.86 67.29 153.91 66.39C154.42 66.24 154.93 65.9 155.42 65.45C152.43 66.3 149.83 63.97 145.51 61.7C141.13 59.44 133.25 59.41 130.74 59.17Z" id="b4NSgtSX6d"></path><path d="M160.61 77.53C161.76 78.68 164.12 76.62 168.43 76.38C172.75 76.14 176.77 77.02 177.95 78.53C179.16 80.04 180.67 77.62 181.24 75.48C181.81 73.33 182.39 72.31 179.64 69.92C176.92 67.53 174.72 65.81 169.16 65.78C165.44 65.78 162.18 65.99 161.46 67.17C159.55 70.31 159.49 76.38 160.61 77.53Z" id="j4e5GOPcV"></path><linearGradient id="gradienta504YKA7gJ" gradientUnits="userSpaceOnUse" x1="163.42" y1="82.73" x2="176.43" y2="64.87"><stop style="stop-color: #804726;stop-opacity: 1" offset="20.03%"></stop><stop style="stop-color: #8d502d;stop-opacity: 1" offset="47.23%"></stop><stop style="stop-color: #975732;stop-opacity: 1" offset="79.08%"></stop></linearGradient><path d="M169.46 75.42C164.87 75.42 162.24 77.32 161.09 76.11C160.04 75.02 160.28 69.83 162 66.66C161.76 66.81 161.58 66.96 161.46 67.17C159.55 70.31 159.49 76.38 160.61 77.53C161.73 78.68 164.12 76.62 168.43 76.38C172.75 76.14 176.77 77.02 177.95 78.53C178.52 79.25 179.19 79.07 179.79 78.44C179.7 78.38 179.58 78.26 179.46 78.1C178.28 76.53 174.05 75.45 169.46 75.42Z" id="fhi79M4Zx"></path><path d="M135.88 97.1C139.08 97.13 141.49 97.1 143.88 95.92C145.9 93.66 146.54 87.26 143.88 85.02C141.25 82.76 131.95 83.33 127.84 90.34C126.39 92.84 130.68 97.07 135.88 97.1Z" id="i3UhF0ljVX"></path><path d="M166.41 88.52C167.59 89.1 172.78 93.75 170.82 98.49C168.86 103.26 161.03 99.91 161.03 99.91C161.06 99.32 161.22 96.36 161.49 91.03C163.98 88.98 165.63 88.14 166.41 88.52Z" id="ht4vbYrTA"></path><path d="M143.37 83.93C141.83 83.24 134.94 82.48 130.26 86.32C125.58 90.16 126.51 92.78 127.45 93.96C128.38 95.14 136 99.82 143.88 95.92C136.21 98.46 129.2 94.9 128.84 92.6C128.48 90.31 132.19 85.11 138.08 84.69C142.73 84.33 145.48 84.69 145.66 91.15C146.6 86.05 144.91 84.6 143.37 83.93Z" id="e43hmuRFOT"></path><path d="M132.61 92.6C133.16 94.78 135.75 95.59 137.11 95.71C140.1 95.95 142.16 92.48 141.58 90.91C139.8 93.09 137.51 92.36 137.2 90.91C136.9 89.43 138.14 87.23 140.38 87.53C138.99 85.2 131.07 86.26 132.61 92.6Z" id="b4FILLYAk"></path><path d="M167.38 87.98C168.43 88.59 172.42 92.33 171.73 98.49C171.18 103.38 160.88 101.21 160.07 99.46C163.48 100.52 166.77 100.7 168.22 99.97C169.67 99.25 172.03 97.62 170 93.27C168.01 88.95 165.84 88.77 164.87 88.95C163.6 89.22 161.49 91.03 161.49 91.03C163.27 87.44 166.32 87.38 167.38 87.98Z" id="e1cwVyQk0q"></path><path d="M161.31 93.93C160.91 95.11 160.49 97.34 163.27 98.61C166.05 99.88 170.49 97.59 167.86 93.99C167.65 96.38 166.2 96.56 165.08 96.38C163.96 96.2 163.45 95.2 163.93 93.9C164.21 93.27 165.41 92.66 166.38 92.57C164.57 90.52 161.7 92.75 161.31 93.93Z" id="a1g040mqvK"></path><path d="M135.72 72.76C125.7 71.01 116.7 73.21 115.07 75.75C112.68 79.4 113.4 99.4 115.64 103.99C118.24 109.3 145.09 109.64 148.23 106.62C150.67 104.26 151.97 98.61 152.58 94.02C153.18 89.43 153.51 81.31 152.28 79.31C151.01 77.32 145.93 74.51 135.72 72.76ZM132.43 103.14C125.91 102.54 121.5 101.51 120.5 100.15C119.48 98.79 118.39 84.45 119.84 81.19C121.02 78.53 129.93 78.5 133.46 79.04C136.99 79.58 146.45 82.15 147.38 84.45C148.32 86.74 147.11 98.61 145.42 100.39C143.73 102.18 138.96 103.75 132.43 103.14Z" id="a1PYJJsaK"></path><path d="M178.04 80.76C172.99 79.74 164.84 79.37 162.82 81.06C161.28 82.33 159.58 88.16 159.16 91C158.74 93.84 157.98 100.58 159.86 105.23C161.94 110.42 180.7 113.96 183.81 111.69C186.13 110 188.58 104.89 189.67 101.06C190.81 97.25 191.78 89.16 190.42 86.68C189.49 85.02 183.08 81.79 178.04 80.76ZM173.45 107.4C168.83 106.53 164.51 104.56 163.69 103.14C162.3 100.79 162.48 88.28 164.84 86.38C166.74 84.84 172.63 84.78 175.32 85.2C181.96 86.23 185.08 88.34 186.04 89.16C187.64 90.55 184.47 106.19 182.45 107.19C180.27 108.28 176.53 107.98 173.45 107.4Z" id="fYKaXUD96"></path><path d="M157.83 105.5C159.43 107.95 161.91 107.73 163.36 108.43C164.84 109.12 168.83 115.47 151.25 114.95C157.59 116.64 162.36 116.22 164.84 114.77C167.35 113.29 167.59 111.21 167.17 109.67C166.32 106.62 163.6 106.07 161 105.47C158.47 104.89 158.41 94.44 160.37 84.6C158.41 90.91 155.42 101.78 157.83 105.5Z" id="d21pryJljG"></path><path d="M161.97 83.36C164.24 85.29 160.52 90.34 160.52 90.34C160.52 90.34 158.23 86.2 151.94 88.68C145.66 91.15 151.94 82.12 151.94 82.12C154.99 81.37 159.71 81.43 161.97 83.36Z" id="a4ErJ2sxtQ"></path><path d="M159.31 48.96C151.91 43.85 146.45 43.85 143.91 43.98C147.59 43.07 153.33 42.5 159.31 48.96Z" id="axlceTylp"></path><path d="M155.96 42.74C152.46 39.2 146.81 39.54 145 39.78C148.17 39.08 153.21 38.3 155.96 42.74Z" id="fcpMLCqYw"></path><path d="M155.69 127.37C161.31 126.94 165.05 125.67 167.35 124.13C169.64 122.59 169.46 124.83 167.95 125.83C166.44 126.82 165.47 126.64 165.05 127.43C164.63 128.21 161.06 137.63 160.97 140.11C160.88 142.59 161.73 143.58 159.31 144.52C156.9 145.46 145.51 147.06 138.87 142.23C132.22 137.39 130.86 130.99 130.71 128.45C130.02 129.15 129.44 130.14 129.26 130.75C129.08 131.35 127.48 132.29 128.23 129.21C128.99 126.16 132.95 121.96 135.63 121.05C136.57 120.78 136.69 121.11 137.23 122.08C139.47 126.01 150.07 127.79 155.69 127.37Z" id="m2FOQt4xod"></path><path d="M159.86 128.57C160.19 130.36 159.25 133.47 157.26 133.98C155.27 134.49 152.22 135.16 145.09 133.29C139.38 131.81 137.17 128.57 136.51 127.12C135.85 125.67 137.42 124.22 137.42 124.22C138.87 127.06 152.22 131.5 159.86 128.57Z" id="d1Z7geq7n6"></path><path d="M154.24 143.07C154.24 140.05 153.94 139.6 149.77 139.08C145.63 138.6 141.98 138.03 139.95 139.39C139.83 140.08 146.54 144.82 154.24 143.07Z" id="a1x22EnZGB"></path><path d="M128.84 12.11C127.15 12.38 125.49 12.72 123.88 13.11C132.85 15.4 149.95 22.83 154.75 26.25C147.62 18.57 133.7 13.44 128.84 12.11Z" id="elST5HcDD"></path><path d="M139.98 23.53C135.91 19.69 126.51 15.65 117.57 14.89C115.55 15.58 113.62 16.34 111.8 17.13C117.75 17.06 128.02 18.03 139.98 23.53Z" id="cphtoFlf"></path><path d="M102.8 21.87C101.08 22.92 99.48 24.04 98 25.13C104.01 23.89 113.56 22.98 125.33 25.46C120.74 22.74 111.38 20.93 102.8 21.87Z" id="abOQw0NMn"></path><path d="M86.13 83.33C85.56 83.87 85.22 84.96 85.22 84.96C89.54 84.45 96.4 88.8 98.39 91.03C93.29 83.81 88.31 83.39 86.13 83.33Z" id="ijtNtF3sU"></path><path d="M87.82 120.33C87.4 121.75 87.82 122.59 87.82 122.59C91.24 123.53 94.04 120.69 95.98 118.34C91.99 121.51 91.3 121.66 87.82 120.33Z" id="k119upa4Ey"></path><path d="M180.42 121.93C180.7 120.24 180.3 120.48 180.3 120.48C176.83 120.45 173.45 122.9 173.45 122.9C176.47 121.93 179.07 121.42 180.42 121.93Z" id="a1u0kziXgc"></path><path d="M159.16 179.28C158.35 180.58 158.1 181.43 158.1 181.43C132.82 184.99 108.06 173.7 103.8 167.9C103.8 166.72 103.8 166.72 103.8 166.72C114.88 174.21 137.69 181.97 159.16 179.28Z" id="aDtC2HrRo"></path><path d="M114.07 190.07C110.87 187.41 108.48 182.73 108.48 181.13C108.51 179.5 109.66 175.33 109.66 175.33C109.87 182.24 112.77 188.26 114.07 190.07Z" id="c4V5nlXmZC"></path><path d="M152.31 196.38C155.21 189.46 155.45 184.45 155.45 184.45C155.36 184.39 154.9 184.1 154.09 183.57C153.75 190.32 153.15 194.59 152.31 196.38Z" id="guJPNBi5"></path><path d="M106.7 236.1C100.45 226.76 91.84 204.66 92.08 201.21C92.32 197.77 94.71 196.98 94.71 196.98C93.02 202.81 101.87 223.56 106.7 236.1Z" id="b6XCiw8zpU"></path><path d="M173.69 204.41C175.83 204.41 175.71 205.35 175.71 205.35C176.2 204.5 182.18 217.1 183.08 222.9C180.73 218.61 176.2 208.07 173.69 204.41Z" id="d2jJ3XW6R"></path><path d="M194.56 99.4C204.38 104.56 213.32 111.15 221.26 119.09C231.38 129.21 239.32 140.99 244.88 154.13C250.62 167.72 253.55 182.15 253.55 197.01C253.55 211.87 250.65 226.31 244.88 239.9C239.32 253.01 231.38 264.82 221.26 274.94C211.14 285.06 199.36 293 186.22 298.56C172.63 304.29 158.2 307.22 143.34 307.22C128.45 307.22 114.04 304.32 100.45 298.56C87.34 293 75.53 285.06 65.41 274.94C55.29 264.82 47.35 253.04 41.79 239.9C36.05 226.31 33.12 211.87 33.12 197.01C33.12 182.15 36.02 167.72 41.79 154.13C47.35 141.02 55.29 129.21 65.41 119.09C68.13 116.37 70.94 113.83 73.87 111.45C74.56 110.88 71.63 105.5 70.79 106.19C44.09 127.49 27.11 160.23 27.11 197.01C27.11 261.77 80.06 314.14 145 313.23C208.69 312.36 260.01 259.93 259.59 196.23C259.28 151.77 234.03 113.23 197.13 93.93C196.96 94.3 196.1 96.12 194.56 99.4" id="b2IJsZrd5A"></path><path d="M439.48 321.09C438.09 320.63 436.73 320.03 435.46 319.31C434.22 320.03 432.89 320.6 431.5 321.06C431.49 321.06 431.39 321.08 431.38 321.09C429.33 321.75 427.18 322.08 425.07 322.08C425.02 322.08 424.66 322.08 424.62 322.08C422.44 322.08 420.27 321.72 418.18 321.06C416.79 320.6 415.46 320.03 414.2 319.31C412.93 320.03 411.57 320.63 410.18 321.09C408.06 321.78 405.89 322.11 403.71 322.11C401.24 322.11 398.82 321.66 396.5 320.79C394.17 321.66 391.69 322.08 389.19 322.08C384.29 322.08 379.64 320.42 375.9 317.37C372.15 320.42 367.5 322.08 362.61 322.08C359.92 322.08 357.32 321.6 354.85 320.6C352.37 321.57 349.77 322.08 347.08 322.08C344.97 322.08 342.89 321.78 340.92 321.18C338.3 321.78 335.52 322.08 332.71 322.08C324.98 322.08 317.76 319.73 311.72 315.23C305.59 319.73 298.19 322.08 290.18 322.08C283.72 322.08 277.83 320.73 272.66 318.04C269.83 316.59 267.26 314.71 264.93 312.54C264.15 313.78 263.21 314.93 262.15 315.95C258.2 319.91 252.91 322.08 247.29 322.08C245.18 322.08 243.1 321.78 241.13 321.18C238.5 321.78 235.73 322.08 232.92 322.08C226.85 322.08 221.2 320.66 216.06 317.89C212.44 320.6 208.03 322.08 203.47 322.08C199.09 322.08 194.83 320.73 191.3 318.22C187.76 320.73 183.51 322.08 179.13 322.08C176.44 322.08 173.84 321.6 171.36 320.6C168.89 321.57 166.29 322.08 163.6 322.08C161.49 322.08 159.4 321.78 157.44 321.18C154.81 321.78 152.03 322.08 149.22 322.08C143.12 322.08 137.42 320.66 132.28 317.83C128.63 320.57 124.16 322.08 119.54 322.08C113.86 322.08 108.54 319.88 104.52 315.86C104.37 315.71 104.19 315.53 104.04 315.38C103.89 315.56 103.74 315.71 103.56 315.86C99.54 319.88 94.2 322.08 88.55 322.08C82.87 322.08 77.55 319.88 73.54 315.86C69.52 311.85 67.31 306.53 67.31 300.85C67.31 296.73 67.31 263.8 67.31 259.68C67.31 254.01 69.52 248.66 73.54 244.67C77.55 240.66 82.87 238.45 88.55 238.45C91.65 238.45 116.44 238.45 119.54 238.45C125.21 238.45 130.53 240.66 134.55 244.67C136.78 246.94 138.5 249.63 139.56 252.59C142.67 251.74 145.9 251.29 149.19 251.29C152 251.29 154.78 251.59 157.41 252.19C159.4 251.59 161.49 251.29 163.6 251.29C166.5 251.29 169.28 251.86 171.91 252.98C174.2 252.13 176.62 251.71 179.1 251.71C181.53 251.71 201 251.71 203.44 251.71C207.85 251.71 212.17 253.1 215.7 255.64C220.9 252.74 226.67 251.26 232.89 251.26C235.7 251.26 238.47 251.56 241.1 252.16C243.1 251.56 245.18 251.26 247.29 251.26C251.85 251.26 256.2 252.71 259.8 255.37C259.98 255.03 260.16 254.7 260.34 254.37C260.37 254.32 260.5 254.1 260.73 253.7C261.01 253.34 261.16 253.14 261.19 253.1C268.38 243.16 278.55 237.91 290.64 237.91C290.66 237.91 290.76 237.91 290.94 237.91C291.08 237.91 291.16 237.91 291.18 237.91C299.58 238.21 306.91 241.02 312.96 246.21C315.58 248.36 317.79 250.87 319.48 253.67C323.62 252.01 328.03 251.2 332.68 251.2C335.49 251.2 338.27 251.5 340.89 252.1C342.64 251.56 344.49 251.26 346.33 251.2C346.78 247.6 348.23 244.16 350.53 241.14C354.3 236.19 360.04 233.47 366.75 233.47C370.1 233.47 373.15 234.1 375.9 235.4C378.62 234.13 381.67 233.47 385.02 233.47C391.72 233.47 397.46 236.19 401.24 241.14C403.75 244.43 405.19 248.18 405.53 252.13C407.58 251.5 409.76 251.17 411.99 251.17C416.79 251.17 421.2 252.62 424.86 255.37C428.48 252.62 432.89 251.17 437.69 251.17C445.7 251.17 452.49 255.15 456.39 262.1C456.45 262.21 456.75 262.75 457.29 263.73C462.19 281.4 464.91 291.22 465.45 293.18C467.26 297.71 467.44 302.57 465.99 307.25C464.3 312.6 460.65 317.01 455.66 319.61C452.55 321.3 449.32 322.11 445.94 322.11C443.76 322.11 441.59 321.78 439.48 321.09Z" id="e5gAY8tYcc"></path><linearGradient id="gradienta68RXWRWp1" gradientUnits="userSpaceOnUse" x1="267.1" y1="233.56" x2="267.1" y2="322.1"><stop style="stop-color: #479ef7;stop-opacity: 1" offset="0%"></stop><stop style="stop-color: #285fd0;stop-opacity: 1" offset="100%"></stop></linearGradient><path d="M384.99 235.46C391.06 235.46 396.28 237.91 399.7 242.38C402.3 245.79 403.65 249.78 403.65 253.89C403.65 254.25 403.62 254.61 403.62 254.97C406.16 253.8 408.97 253.16 411.96 253.16C416.91 253.16 421.35 254.85 424.83 257.9C428.27 254.85 432.71 253.16 437.66 253.16C444.94 253.16 451.13 256.79 454.7 263.13C454.75 263.22 455.01 263.7 455.48 264.55L455.91 266.12C460.53 282.77 463.09 292.02 463.61 293.87C465.27 297.98 465.48 302.48 464.12 306.77C462.58 311.63 459.26 315.62 454.73 317.98C451.95 319.43 449.02 320.15 445.97 320.15C443.98 320.15 442.01 319.85 440.08 319.21C438.45 318.67 436.88 317.95 435.49 317.04C434.1 317.95 432.56 318.67 430.93 319.21C430.92 319.22 430.9 319.23 430.87 319.25C430.83 319.26 430.81 319.27 430.81 319.28C428.9 319.88 426.97 320.18 425.07 320.18C425.01 320.18 424.92 320.18 424.86 320.18C424.8 320.18 424.71 320.18 424.65 320.18C422.68 320.18 420.72 319.88 418.82 319.25C417.19 318.7 415.64 317.98 414.23 317.07C412.81 318.01 411.27 318.73 409.6 319.28C407.67 319.91 405.71 320.21 403.71 320.21C401.21 320.21 398.79 319.73 396.5 318.76C394.2 319.7 391.72 320.21 389.19 320.21C384.17 320.21 379.49 318.31 375.9 314.84C372.3 318.31 367.62 320.21 362.61 320.21C359.89 320.21 357.26 319.64 354.85 318.58C352.43 319.64 349.8 320.21 347.08 320.21C344.97 320.21 342.92 319.88 340.98 319.21C338.33 319.88 335.55 320.21 332.68 320.21C324.82 320.21 317.64 317.67 311.69 312.87C305.68 317.67 298.25 320.21 290.15 320.21C284.02 320.21 278.4 318.91 273.51 316.41C270.1 314.65 267.08 312.3 264.48 309.43C263.54 311.33 262.3 313.11 260.76 314.65C257.17 318.25 252.37 320.24 247.26 320.24C245.15 320.24 243.1 319.91 241.16 319.25C238.5 319.91 235.73 320.24 232.86 320.24C226.67 320.24 220.9 318.67 215.82 315.65C212.38 318.61 208 320.24 203.41 320.24C198.91 320.24 194.65 318.7 191.24 315.86C187.82 318.7 183.57 320.24 179.07 320.24C176.35 320.24 173.72 319.67 171.3 318.61C168.89 319.67 166.26 320.24 163.54 320.24C161.43 320.24 159.37 319.91 157.44 319.25C154.78 319.91 152 320.24 149.13 320.24C142.91 320.24 137.11 318.64 132.01 315.59C128.51 318.58 124.1 320.24 119.44 320.24C114.28 320.24 109.42 318.25 105.76 314.59C105.1 313.93 104.49 313.23 103.95 312.48C103.41 313.2 102.8 313.93 102.14 314.59C102.14 314.59 102.14 314.59 102.14 314.59C102.14 314.59 102.14 314.59 102.14 314.59C98.48 318.22 93.65 320.24 88.49 320.24C83.32 320.24 78.46 318.25 74.8 314.59C71.15 310.94 69.16 306.08 69.16 300.91C69.16 296.79 69.16 263.81 69.16 259.68C69.16 254.52 71.18 249.66 74.84 246C78.49 242.35 83.32 240.36 88.49 240.36C91.59 240.36 116.38 240.36 119.48 240.36C124.64 240.36 129.5 242.35 133.16 246C135.66 248.51 137.39 251.59 138.23 254.97C141.67 253.8 145.33 253.19 149.16 253.19C152.03 253.19 154.81 253.52 157.44 254.19C159.37 253.52 161.43 253.19 163.54 253.19C166.44 253.19 169.25 253.83 171.79 255.06C174.05 254.13 176.5 253.64 179.04 253.64C181.47 253.64 200.94 253.64 203.38 253.64C207.85 253.64 212.11 255.18 215.49 257.96C220.62 254.82 226.51 253.19 232.83 253.19C235.7 253.19 238.47 253.52 241.1 254.19C243.04 253.52 245.09 253.19 247.2 253.19C252.16 253.19 256.81 255.06 260.4 258.48C260.82 257.42 261.31 256.39 261.91 255.4C261.93 255.36 262.04 255.17 262.24 254.82C262.48 254.5 262.61 254.31 262.64 254.28C269.43 244.86 279.1 239.9 290.54 239.9C290.56 239.9 290.64 239.9 290.79 239.9C290.93 239.9 291.01 239.9 291.03 239.9C299 240.2 305.95 242.83 311.66 247.75C314.59 250.17 316.91 253.01 318.6 256.18C322.89 254.22 327.6 253.19 332.62 253.19C335.49 253.19 338.27 253.52 340.89 254.19C342.83 253.52 344.88 253.19 346.99 253.19C347.33 253.19 347.66 253.19 348.02 253.22C348.17 249.36 349.53 245.61 351.98 242.41C355.36 237.94 360.59 235.49 366.69 235.49C370.52 235.49 373.51 236.4 375.84 237.64C378.19 236.4 381.18 235.46 384.99 235.46M375.87 233.41C373.09 232.26 370.04 231.66 366.72 231.66C359.41 231.66 353.12 234.65 348.99 240.08C346.81 242.92 345.36 246.12 344.7 249.48C343.37 249.6 342.1 249.87 340.83 250.2C338.2 249.63 335.49 249.36 332.68 249.36C328.36 249.36 324.19 250.05 320.26 251.44C318.6 248.99 316.55 246.79 314.19 244.83C307.82 239.36 300.09 236.4 291.24 236.07C291.22 236.07 291.14 236.07 291 236.07L290.94 236.07L290.88 236.07C290.73 236.07 290.65 236.07 290.64 236.07C277.89 236.07 267.17 241.59 259.62 252.04C259.59 252.08 259.46 252.26 259.22 252.59C259.19 252.64 259.17 252.67 259.16 252.68C255.63 250.53 251.52 249.39 247.29 249.39C245.15 249.39 243.07 249.69 241.04 250.23C238.41 249.66 235.7 249.39 232.89 249.39C226.76 249.39 221.05 250.74 215.82 253.46C212.17 251.11 207.85 249.84 203.44 249.84C201 249.84 181.53 249.84 179.1 249.84C176.65 249.84 174.26 250.23 171.97 250.96C169.31 249.9 166.5 249.39 163.6 249.39C161.46 249.39 159.37 249.69 157.35 250.23C154.72 249.66 152 249.39 149.19 249.39C146.3 249.39 143.46 249.69 140.71 250.32C139.56 247.72 137.93 245.34 135.91 243.31C131.53 238.94 125.7 236.52 119.54 236.52C116.43 236.52 91.62 236.52 88.52 236.52C82.33 236.52 76.53 238.94 72.15 243.28C67.77 247.66 65.35 253.46 65.35 259.65C65.35 263.77 65.35 296.73 65.35 300.85C65.35 307.04 67.77 312.84 72.12 317.22C76.5 321.6 82.3 323.99 88.49 323.99C94.26 323.99 99.72 321.87 103.98 318.04C108.24 321.87 113.71 323.99 119.48 323.99C124.1 323.99 128.57 322.6 132.37 320.06C137.51 322.66 143.15 323.99 149.16 323.99C151.94 323.99 154.69 323.68 157.32 323.14C159.34 323.72 161.43 323.99 163.57 323.99C166.23 323.99 168.86 323.53 171.33 322.66C173.81 323.53 176.41 323.99 179.1 323.99C183.41 323.99 187.64 322.75 191.27 320.48C194.89 322.75 199.12 323.99 203.44 323.99C208 323.99 212.44 322.63 216.18 320.12C221.29 322.69 226.91 323.99 232.89 323.99C235.67 323.99 238.41 323.68 241.04 323.14C243.07 323.72 245.15 323.99 247.29 323.99C253.43 323.99 259.16 321.6 263.48 317.28C264.09 316.68 264.69 316.01 265.2 315.35C267.23 317.04 269.4 318.52 271.76 319.73C277.19 322.54 283.39 323.99 290.15 323.99C298.07 323.99 305.43 321.78 311.66 317.55C317.79 321.75 325.01 323.99 332.65 323.99C335.43 323.99 338.17 323.68 340.8 323.14C342.83 323.72 344.91 323.99 347.05 323.99C349.71 323.99 352.34 323.53 354.82 322.66C357.29 323.53 359.89 323.99 362.58 323.99C367.41 323.99 372 322.51 375.87 319.76C379.73 322.51 384.32 323.99 389.16 323.99C391.66 323.99 394.11 323.59 396.47 322.81C398.82 323.59 401.24 324.02 403.71 324.02C406.1 324.02 408.46 323.65 410.78 322.9C411.96 322.51 413.11 322.05 414.23 321.48C415.31 322.02 416.46 322.51 417.64 322.9C419.9 323.65 422.26 324.02 424.65 324.02C424.71 324.02 424.8 324.02 424.86 324.02C424.92 324.02 425.01 324.02 425.07 324.02C427.36 324.02 429.69 323.65 431.95 322.93C431.96 322.93 431.98 322.92 432.01 322.9L432.01 322.9L432.01 322.9C432.05 322.88 432.07 322.87 432.08 322.87C433.22 322.48 434.37 322.02 435.46 321.48C436.55 322.05 437.69 322.51 438.9 322.9C441.2 323.65 443.58 324.02 445.97 324.02C449.65 324.02 453.19 323.14 456.51 321.42C461.95 318.58 465.96 313.81 467.78 307.95C469.35 302.94 469.16 297.53 467.23 292.7C466.72 290.86 464.18 281.68 459.59 265.15L459.17 263.58L459.05 263.13L458.84 262.74C458.36 261.88 458.1 261.41 458.05 261.32C453.82 253.73 446.39 249.42 437.69 249.42C432.98 249.42 428.6 250.71 424.86 253.16C421.11 250.68 416.73 249.42 411.99 249.42C410.33 249.42 408.7 249.57 407.13 249.9C406.49 246.4 405.01 243.07 402.75 240.14C398.58 234.65 392.3 231.66 384.99 231.66C384.99 231.66 384.99 231.66 384.99 231.66C380.76 232.04 377.72 232.62 375.87 233.41Z" id="b3Ck4lzbTZ"></path><path d="M94.29 300.88C94.29 302.48 93.71 303.84 92.59 304.96C91.48 306.08 90.12 306.65 88.52 306.65C86.92 306.65 85.56 306.08 84.44 304.96C83.32 303.84 82.75 302.48 82.75 300.88C82.75 296.76 82.75 263.8 82.75 259.68C82.75 258.08 83.32 256.73 84.44 255.61C85.56 254.49 86.92 253.92 88.52 253.92C91.62 253.92 116.41 253.92 119.51 253.92C121.11 253.92 122.47 254.49 123.58 255.61C124.7 256.73 125.27 258.08 125.27 259.68C125.27 263.8 125.27 296.76 125.27 300.88C125.27 302.48 124.7 303.84 123.58 304.96C122.47 306.08 121.11 306.65 119.51 306.65C117.9 306.65 116.55 306.08 115.43 304.96C114.31 303.84 113.74 302.48 113.74 300.88C113.74 298.52 113.74 286.71 113.74 265.45L94.29 265.45C94.29 286.71 94.29 298.52 94.29 300.88Z" id="a1VFLYLXSv"></path><path d="M149.16 306.62C143.64 306.62 138.93 304.69 135.06 300.79C131.16 296.89 129.23 292.21 129.23 286.69C129.23 281.16 131.16 276.48 135.06 272.58C138.96 268.69 143.64 266.75 149.16 266.75C152.76 266.75 156.02 267.57 158.92 269.23C159.13 268.93 159.37 268.62 159.68 268.35C160.73 267.3 162.03 266.75 163.57 266.75C165.11 266.75 166.41 267.3 167.5 268.38C168.59 269.47 169.13 270.77 169.13 272.31C169.13 275.19 169.13 298.21 169.13 301.09C169.13 302.63 168.59 303.93 167.5 305.02C166.41 306.11 165.11 306.65 163.57 306.65C162.03 306.65 160.73 306.11 159.68 305.02C159.4 304.72 159.13 304.45 158.92 304.14C156.02 305.8 152.79 306.62 149.16 306.62ZM158.04 286.69C158.04 284.24 157.17 282.16 155.45 280.43C153.73 278.71 151.64 277.84 149.19 277.84C146.75 277.84 144.66 278.71 142.91 280.43C141.19 282.16 140.32 284.24 140.32 286.69C140.32 289.13 141.19 291.22 142.91 292.97C144.63 294.69 146.72 295.57 149.19 295.57C151.64 295.57 153.73 294.69 155.45 292.97C157.17 291.25 158.04 289.16 158.04 286.69Z" id="b4e7NwARQT"></path><path d="M208.97 301.09C208.97 302.63 208.42 303.93 207.34 305.02C206.25 306.11 204.95 306.65 203.41 306.65C201.87 306.65 200.57 306.11 199.48 305.02C198.4 303.93 197.85 302.63 197.85 301.09C197.85 299.57 197.85 291.97 197.85 278.29L184.56 278.29C184.56 291.97 184.56 299.57 184.56 301.09C184.56 302.63 184.02 303.93 182.93 305.02C181.84 306.11 180.55 306.65 179.01 306.65C177.46 306.65 176.17 306.11 175.08 305.02C173.99 303.93 173.45 302.63 173.45 301.09C173.45 298.26 173.45 275.6 173.45 272.76C173.45 271.22 173.99 269.92 175.08 268.84C176.17 267.75 177.46 267.21 179.01 267.21C181.44 267.21 200.91 267.21 203.35 267.21C204.89 267.21 206.19 267.75 207.28 268.84C208.45 269.89 208.97 271.22 208.97 272.76C208.97 278.43 208.97 298.26 208.97 301.09Z" id="e72g1rnTjs"></path><path d="M232.89 306.62C227.36 306.62 222.65 304.69 218.78 300.79C214.89 296.89 212.95 292.21 212.95 286.69C212.95 281.16 214.89 276.48 218.78 272.58C222.68 268.69 227.36 266.75 232.89 266.75C236.48 266.75 239.74 267.57 242.64 269.23C242.85 268.93 243.1 268.62 243.4 268.35C244.45 267.3 245.75 266.75 247.29 266.75C248.83 266.75 250.13 267.3 251.22 268.38C252.31 269.47 252.85 270.77 252.85 272.31C252.85 275.19 252.85 298.21 252.85 301.09C252.85 302.63 252.31 303.93 251.22 305.02C250.13 306.11 248.83 306.65 247.29 306.65C245.75 306.65 244.45 306.11 243.4 305.02C243.1 304.72 242.85 304.45 242.64 304.14C239.74 305.8 236.51 306.62 232.89 306.62ZM241.77 286.69C241.77 284.24 240.89 282.16 239.17 280.43C237.45 278.71 235.36 277.84 232.92 277.84C230.47 277.84 228.39 278.71 226.64 280.43C224.91 282.16 224.04 284.24 224.04 286.69C224.04 289.13 224.91 291.22 226.64 292.97C228.36 294.69 230.44 295.57 232.92 295.57C235.33 295.57 237.42 294.69 239.17 292.97C240.89 291.25 241.77 289.16 241.77 286.69Z" id="a8ps8ZlFM"></path><path d="M304.23 279.11C307.55 281.58 309.24 285.27 309.24 290.19C309.06 294.99 307.22 298.89 303.71 301.88C300 305.05 295.5 306.62 290.21 306.62C282.27 306.62 276.35 303.54 272.42 297.41C271.61 296.29 271.18 294.93 271.18 293.33C271.18 291.73 271.76 290.37 272.88 289.25C273.99 288.14 275.35 287.56 276.95 287.56C278.55 287.56 279.91 288.26 281.03 289.68C282.99 293.27 286.07 295.08 290.24 295.08C292.33 295.08 294.11 294.63 295.59 293.72C297.04 292.82 297.79 291.58 297.79 289.98C297.79 288.38 297.22 287.05 296.07 285.99C294.41 284.96 292.05 284.45 288.94 284.45C287.34 284.45 286.07 283.97 285.08 283C284.11 282.04 283.63 280.74 283.63 279.17C283.63 277.57 284.11 276.3 285.08 275.3C286.04 274.33 287.34 273.85 288.94 273.85C291.81 273.82 293.96 273.37 295.41 272.49C296.4 271.62 296.92 270.5 296.92 269.2C296.92 267.9 296.34 266.87 295.17 266.12C293.99 265.36 292.24 265 289.82 265C287.43 265 285.68 265.73 284.59 267.21C283.51 268.66 282.6 269.74 281.94 270.41C280.82 271.52 279.46 272.1 277.86 272.1C276.26 272.1 274.99 271.62 273.99 270.65C273.03 269.68 272.54 268.38 272.54 266.78C272.54 265.18 272.97 263.67 273.78 262.25C278.01 256.39 283.63 253.49 290.7 253.49C295.59 253.67 299.73 255.25 303.11 258.17C306.49 260.89 308.27 264.52 308.42 269.08C308.33 272.94 306.79 276.21 303.77 278.8C303.92 278.89 304.08 278.98 304.23 279.11Z" id="d1ovKEXRXS"></path><path d="M332.68 306.62C327.15 306.62 322.44 304.69 318.57 300.79C314.68 296.89 312.74 292.21 312.74 286.69C312.74 281.16 314.68 276.48 318.57 272.58C322.47 268.69 327.15 266.75 332.68 266.75C336.27 266.75 339.53 267.57 342.43 269.23C342.64 268.93 342.89 268.62 343.19 268.35C344.25 267.3 345.54 266.75 347.08 266.75C348.62 266.75 349.92 267.3 351.01 268.38C352.1 269.47 352.64 270.77 352.64 272.31C352.64 275.19 352.64 298.21 352.64 301.09C352.64 302.63 352.1 303.93 351.01 305.02C349.92 306.11 348.62 306.65 347.08 306.65C345.54 306.65 344.25 306.11 343.19 305.02C342.89 304.72 342.64 304.42 342.43 304.14C339.53 305.8 336.3 306.62 332.68 306.62ZM341.56 286.66C341.56 284.21 340.68 282.13 338.96 280.4C337.24 278.68 335.15 277.81 332.71 277.81C330.26 277.81 328.18 278.68 326.43 280.4C324.7 282.13 323.83 284.21 323.83 286.66C323.83 289.1 324.7 291.19 326.43 292.94C328.15 294.66 330.23 295.54 332.71 295.54C335.12 295.54 337.24 294.69 338.96 292.94C340.68 291.22 341.56 289.13 341.56 286.66Z" id="a2LgHTGAq2"></path><path d="M362.58 306.62C361.04 306.62 359.74 306.08 358.65 304.99C357.56 303.9 357.02 302.6 357.02 301.06C357.02 298.18 357.02 275.16 357.02 272.28C357.02 270.74 357.56 269.44 358.65 268.35C359.74 267.27 361.04 266.72 362.58 266.72C364.12 266.72 365.42 267.27 366.5 268.35C367.59 269.44 368.14 270.74 368.14 272.28C368.14 273.83 368.14 286.22 368.14 287.77C378.47 275.9 384.17 269.44 385.26 268.35C386.35 267.27 387.65 266.72 389.19 266.72C390.73 266.72 392.03 267.27 393.11 268.35C394.2 269.44 394.74 270.74 394.74 272.28C394.74 275.16 394.74 298.18 394.74 301.06C394.74 302.6 394.2 303.9 393.11 304.99C392.03 306.08 390.73 306.62 389.19 306.62C387.65 306.62 386.35 306.08 385.26 304.99C384.17 303.9 383.63 302.6 383.63 301.06C383.63 299.51 383.63 287.12 383.63 285.57C373.27 297.44 367.59 303.93 366.5 304.99C365.42 306.08 364.12 306.62 362.58 306.62ZM379.88 252.5C380.19 252.01 380.67 251.32 381.33 250.41C382 249.51 383.21 249.05 384.99 249.05C386.8 249.05 388.1 249.57 388.89 250.62C389.67 251.68 390.09 252.77 390.09 253.92C390.09 255.94 388.92 258.11 386.53 260.5C384.14 262.89 380.61 264.06 375.87 264.06C371.16 264.06 367.59 262.89 365.21 260.5C362.82 258.11 361.64 255.94 361.64 253.92C361.64 252.77 362.03 251.68 362.85 250.62C363.67 249.57 364.93 249.05 366.75 249.05C368.56 249.05 369.77 249.51 370.43 250.41C371.07 251.32 371.55 252.01 371.79 252.5C372.85 253.7 374.21 254.31 375.87 254.31C377.56 254.31 378.89 253.7 379.88 252.5Z" id="e2S8uKEkGE"></path><path d="M437.63 266.75C439.96 266.75 441.68 267.75 442.83 269.77C443.62 272.65 450 295.65 450.8 298.53C451.5 299.89 451.65 301.3 451.19 302.75C450.74 304.2 449.83 305.29 448.48 306.02C447.12 306.71 445.7 306.83 444.25 306.38C442.8 305.9 441.71 304.99 440.99 303.63C440.76 302.34 439.66 295.89 437.66 284.27C433.04 295.89 430.47 302.34 429.96 303.63C429.27 304.99 428.18 305.9 426.73 306.38C426.07 306.59 425.46 306.68 424.86 306.65C424.22 306.68 423.62 306.59 422.98 306.38C421.5 305.9 420.42 304.99 419.69 303.63C419.17 302.34 416.59 295.89 411.93 284.27C409.95 295.89 408.86 302.34 408.64 303.63C407.94 304.99 406.86 305.9 405.38 306.38C403.93 306.86 402.51 306.74 401.15 306.02C399.79 305.32 398.88 304.23 398.43 302.75C397.98 301.3 398.1 299.89 398.79 298.53C399.59 295.65 405.97 272.65 406.77 269.77C407.88 267.78 409.6 266.75 411.9 266.75C414.23 266.75 415.95 267.75 417.09 269.77C417.61 270.96 420.18 276.89 424.8 287.56L432.5 269.77C434.39 267.76 436.1 266.75 437.63 266.75Z" id="d3uEKCa73G"></path></defs><g><g><g><use xlink:href="#b3099N6a0U" opacity="1" fill="url(#gradientb12kthl3gJ)"></use><g><use xlink:href="#b3099N6a0U" opacity="1" fill-opacity="0" stroke="#000000" stroke-width="1" stroke-opacity="0"></use></g></g><g><use xlink:href="#c4O5OpOnZW" opacity="1" fill="#ffffff" fill-opacity="1"></use><g><use xlink:href="#c4O5OpOnZW" opacity="1" fill-opacity="0" stroke="#000000" stroke-width="1" stroke-opacity="0"></use></g></g><g><use xlink:href="#a1pCb3D9d8" opacity="1" fill="#ffffff" fill-opacity="1"></use><g><use xlink:href="#a1pCb3D9d8" opacity="1" fill-opacity="0" stroke="#000000" stroke-width="1" stroke-opacity="0"></use></g></g><g><use xlink:href="#aaNwzfJDN" opacity="1" fill="#000000" fill-opacity="1"></use><g><use xlink:href="#aaNwzfJDN" opacity="1" fill-opacity="0" stroke="#000000" stroke-width="1" stroke-opacity="0"></use></g></g><g><use xlink:href="#e1eefEG5gH" opacity="1" fill="#000000" fill-opacity="1"></use><g><use xlink:href="#e1eefEG5gH" opacity="1" fill-opacity="0" stroke="#000000" stroke-width="1" stroke-opacity="0"></use></g></g><g><use xlink:href="#dvw4VKzJ4" opacity="1" fill="#000000" fill-opacity="1"></use><g><use xlink:href="#dvw4VKzJ4" opacity="1" fill-opacity="0" stroke="#000000" stroke-width="1" stroke-opacity="0"></use></g></g><g><use xlink:href="#c2t6OOuJv5" opacity="1" fill="#000000" fill-opacity="1"></use><g><use xlink:href="#c2t6OOuJv5" opacity="1" fill-opacity="0" stroke="#000000" stroke-width="1" stroke-opacity="0"></use></g></g><g><use xlink:href="#b2re7AQb29" opacity="1" fill="#ffffff" fill-opacity="1"></use><g><use xlink:href="#b2re7AQb29" opacity="1" fill-opacity="0" stroke="#000000" stroke-width="1" stroke-opacity="0"></use></g></g><g><use xlink:href="#cVQYPNkFt" opacity="1" fill="#ffffff" fill-opacity="1"></use><g><use xlink:href="#cVQYPNkFt" opacity="1" fill-opacity="0" stroke="#000000" stroke-width="1" stroke-opacity="0"></use></g></g><g><use xlink:href="#a8OsRnUn4" opacity="1" fill="url(#gradientc2E5YpbX9O)"></use><g><use xlink:href="#a8OsRnUn4" opacity="1" fill-opacity="0" stroke="#000000" stroke-width="1" stroke-opacity="0"></use></g></g><g><use xlink:href="#b5mdrTDBJH" opacity="1" fill="#9e5926" fill-opacity="1"></use><g><use xlink:href="#b5mdrTDBJH" opacity="1" fill-opacity="0" stroke="#000000" stroke-width="1" stroke-opacity="0"></use></g></g><g><use xlink:href="#a3JyMZJBi4" opacity="1" fill="#9e5926" fill-opacity="1"></use><g><use xlink:href="#a3JyMZJBi4" opacity="1" fill-opacity="0" stroke="#000000" stroke-width="1" stroke-opacity="0"></use></g></g><g><use xlink:href="#a10VZ028Fa" opacity="1" fill="#005ebc" fill-opacity="1"></use><g><use xlink:href="#a10VZ028Fa" opacity="1" fill-opacity="0" stroke="#000000" stroke-width="1" stroke-opacity="0"></use></g></g><g><use xlink:href="#cf5EC99Y" opacity="1" fill="#ce783e" fill-opacity="1"></use><g><use xlink:href="#cf5EC99Y" opacity="1" fill-opacity="0" stroke="#000000" stroke-width="1" stroke-opacity="0"></use></g></g><g><use xlink:href="#dKhlQEEt5" opacity="1" fill="#ce783e" fill-opacity="1"></use><g><use xlink:href="#dKhlQEEt5" opacity="1" fill-opacity="0" stroke="#000000" stroke-width="1" stroke-opacity="0"></use></g></g><g><use xlink:href="#b4T0w2HMI" opacity="1" fill="#522800" fill-opacity="1"></use><g><use xlink:href="#b4T0w2HMI" opacity="1" fill-opacity="0" stroke="#000000" stroke-width="1" stroke-opacity="0"></use></g></g><g><use xlink:href="#egebww5Se" opacity="1" fill="#000000" fill-opacity="1"></use><g><use xlink:href="#egebww5Se" opacity="1" fill-opacity="0" stroke="#000000" stroke-width="1" stroke-opacity="0"></use></g></g><g><use xlink:href="#a3UjyGh5s" opacity="1" fill="#000000" fill-opacity="1"></use><g><use xlink:href="#a3UjyGh5s" opacity="1" fill-opacity="0" stroke="#000000" stroke-width="1" stroke-opacity="0"></use></g></g><g><use xlink:href="#f2Tx1fie1b" opacity="1" fill="#000000" fill-opacity="1"></use><g><use xlink:href="#f2Tx1fie1b" opacity="1" fill-opacity="0" stroke="#000000" stroke-width="1" stroke-opacity="0"></use></g></g><g><use xlink:href="#g2ZVeZS0bb" opacity="1" fill="#000000" fill-opacity="1"></use><g><use xlink:href="#g2ZVeZS0bb" opacity="1" fill-opacity="0" stroke="#000000" stroke-width="1" stroke-opacity="0"></use></g></g><g><use xlink:href="#a3R3C3vD9z" opacity="1" fill="#ffca8f" fill-opacity="1"></use><g><use xlink:href="#a3R3C3vD9z" opacity="1" fill-opacity="0" stroke="#000000" stroke-width="1" stroke-opacity="0"></use></g></g><g><use xlink:href="#bChMso19z" opacity="1" fill="#bc8358" fill-opacity="1"></use><g><use xlink:href="#bChMso19z" opacity="1" fill-opacity="0" stroke="#000000" stroke-width="1" stroke-opacity="0"></use></g></g><g><use xlink:href="#c5wWcwAMj" opacity="1" fill="#bc8358" fill-opacity="1"></use><g><use xlink:href="#c5wWcwAMj" opacity="1" fill-opacity="0" stroke="#000000" stroke-width="1" stroke-opacity="0"></use></g></g><g><use xlink:href="#c1F07IN2lc" opacity="1" fill="#bc8358" fill-opacity="1"></use><g><use xlink:href="#c1F07IN2lc" opacity="1" fill-opacity="0" stroke="#000000" stroke-width="1" stroke-opacity="0"></use></g></g><g><use xlink:href="#f11hRrNk7D" opacity="1" fill="#bc8358" fill-opacity="1"></use><g><use xlink:href="#f11hRrNk7D" opacity="1" fill-opacity="0" stroke="#000000" stroke-width="1" stroke-opacity="0"></use></g></g><g><use xlink:href="#bk9N2pwN4" opacity="1" fill="#bc8358" fill-opacity="1"></use><g><use xlink:href="#bk9N2pwN4" opacity="1" fill-opacity="0" stroke="#000000" stroke-width="1" stroke-opacity="0"></use></g></g><g><use xlink:href="#b13bcKWBNt" opacity="1" fill="#bc8358" fill-opacity="1"></use><g><use xlink:href="#b13bcKWBNt" opacity="1" fill-opacity="0" stroke="#000000" stroke-width="1" stroke-opacity="0"></use></g></g><g><use xlink:href="#b2W8HD0MxJ" opacity="1" fill="#bc8358" fill-opacity="1"></use><g><use xlink:href="#b2W8HD0MxJ" opacity="1" fill-opacity="0" stroke="#000000" stroke-width="1" stroke-opacity="0"></use></g></g><g><use xlink:href="#dg3TslNgg" opacity="1" fill="#bc8358" fill-opacity="1"></use><g><use xlink:href="#dg3TslNgg" opacity="1" fill-opacity="0" stroke="#000000" stroke-width="1" stroke-opacity="0"></use></g></g><g><use xlink:href="#awUEVIbNq" opacity="1" fill="#bc8358" fill-opacity="1"></use><g><use xlink:href="#awUEVIbNq" opacity="1" fill-opacity="0" stroke="#000000" stroke-width="1" stroke-opacity="0"></use></g></g><g><use xlink:href="#d183F55rdL" opacity="1" fill="#bc8358" fill-opacity="1"></use><g><use xlink:href="#d183F55rdL" opacity="1" fill-opacity="0" stroke="#000000" stroke-width="1" stroke-opacity="0"></use></g></g><g><use xlink:href="#f61TV3HfZd" opacity="1" fill="#bc8358" fill-opacity="1"></use><g><use xlink:href="#f61TV3HfZd" opacity="1" fill-opacity="0" stroke="#000000" stroke-width="1" stroke-opacity="0"></use></g></g><g><use xlink:href="#dgYXAaFtu" opacity="1" fill="#bc8358" fill-opacity="1"></use><g><use xlink:href="#dgYXAaFtu" opacity="1" fill-opacity="0" stroke="#000000" stroke-width="1" stroke-opacity="0"></use></g></g><g><use xlink:href="#c1qV5TeG7S" opacity="1" fill="#bc8358" fill-opacity="1"></use><g><use xlink:href="#c1qV5TeG7S" opacity="1" fill-opacity="0" stroke="#000000" stroke-width="1" stroke-opacity="0"></use></g></g><g><use xlink:href="#a2lmYlkjim" opacity="1" fill="#bc8358" fill-opacity="1"></use><g><use xlink:href="#a2lmYlkjim" opacity="1" fill-opacity="0" stroke="#000000" stroke-width="1" stroke-opacity="0"></use></g></g><g><use xlink:href="#dco7hvIzc" opacity="1" fill="#bc8358" fill-opacity="1"></use><g><use xlink:href="#dco7hvIzc" opacity="1" fill-opacity="0" stroke="#000000" stroke-width="1" stroke-opacity="0"></use></g></g><g><use xlink:href="#ek4RX74G" opacity="1" fill="#bc8358" fill-opacity="1"></use><g><use xlink:href="#ek4RX74G" opacity="1" fill-opacity="0" stroke="#000000" stroke-width="1" stroke-opacity="0"></use></g></g><g><use xlink:href="#a1GrECWfS0" opacity="1" fill="#bc8358" fill-opacity="1"></use><g><use xlink:href="#a1GrECWfS0" opacity="1" fill-opacity="0" stroke="#000000" stroke-width="1" stroke-opacity="0"></use></g></g><g><use xlink:href="#c4OgjtzCD" opacity="1" fill="#bc8358" fill-opacity="1"></use><g><use xlink:href="#c4OgjtzCD" opacity="1" fill-opacity="0" stroke="#000000" stroke-width="1" stroke-opacity="0"></use></g></g><g><use xlink:href="#c17BBlVKxU" opacity="1" fill="#bc8358" fill-opacity="1"></use><g><use xlink:href="#c17BBlVKxU" opacity="1" fill-opacity="0" stroke="#000000" stroke-width="1" stroke-opacity="0"></use></g></g><g><use xlink:href="#f3GiQGdhQk" opacity="1" fill="#bc8358" fill-opacity="1"></use><g><use xlink:href="#f3GiQGdhQk" opacity="1" fill-opacity="0" stroke="#000000" stroke-width="1" stroke-opacity="0"></use></g></g><g><use xlink:href="#c5d1RIyDl" opacity="1" fill="#bc8358" fill-opacity="1"></use><g><use xlink:href="#c5d1RIyDl" opacity="1" fill-opacity="0" stroke="#000000" stroke-width="1" stroke-opacity="0"></use></g></g><g><use xlink:href="#e1HpOqyVd" opacity="1" fill="#bc8358" fill-opacity="1"></use><g><use xlink:href="#e1HpOqyVd" opacity="1" fill-opacity="0" stroke="#000000" stroke-width="1" stroke-opacity="0"></use></g></g><g><use xlink:href="#bawWSvaqVR" opacity="1" fill="#bc8358" fill-opacity="1"></use><g><use xlink:href="#bawWSvaqVR" opacity="1" fill-opacity="0" stroke="#000000" stroke-width="1" stroke-opacity="0"></use></g></g><g><use xlink:href="#b1Lfytjh6f" opacity="1" fill="#bc8358" fill-opacity="1"></use><g><use xlink:href="#b1Lfytjh6f" opacity="1" fill-opacity="0" stroke="#000000" stroke-width="1" stroke-opacity="0"></use></g></g><g><use xlink:href="#h3v8yFDEFX" opacity="1" fill="#bc8358" fill-opacity="1"></use><g><use xlink:href="#h3v8yFDEFX" opacity="1" fill-opacity="0" stroke="#000000" stroke-width="1" stroke-opacity="0"></use></g></g><g><use xlink:href="#a2PBmgoVH" opacity="1" fill="#bc8358" fill-opacity="1"></use><g><use xlink:href="#a2PBmgoVH" opacity="1" fill-opacity="0" stroke="#000000" stroke-width="1" stroke-opacity="0"></use></g></g><g><use xlink:href="#a2Rk0zKznK" opacity="1" fill="#bc8358" fill-opacity="1"></use><g><use xlink:href="#a2Rk0zKznK" opacity="1" fill-opacity="0" stroke="#000000" stroke-width="1" stroke-opacity="0"></use></g></g><g><use xlink:href="#b218ipxX4W" opacity="1" fill="#bc8358" fill-opacity="1"></use><g><use xlink:href="#b218ipxX4W" opacity="1" fill-opacity="0" stroke="#000000" stroke-width="1" stroke-opacity="0"></use></g></g><g><use xlink:href="#a8qrNhRiD" opacity="1" fill="#bc8358" fill-opacity="1"></use><g><use xlink:href="#a8qrNhRiD" opacity="1" fill-opacity="0" stroke="#000000" stroke-width="1" stroke-opacity="0"></use></g></g><g><use xlink:href="#d5PLAoU1NV" opacity="1" fill="#bc8358" fill-opacity="1"></use><g><use xlink:href="#d5PLAoU1NV" opacity="1" fill-opacity="0" stroke="#000000" stroke-width="1" stroke-opacity="0"></use></g></g><g><use xlink:href="#d8wlf5lQl" opacity="1" fill="#bc8358" fill-opacity="1"></use><g><use xlink:href="#d8wlf5lQl" opacity="1" fill-opacity="0" stroke="#000000" stroke-width="1" stroke-opacity="0"></use></g></g><g><use xlink:href="#a1awuJ3yPt" opacity="1" fill="#bc8358" fill-opacity="1"></use><g><use xlink:href="#a1awuJ3yPt" opacity="1" fill-opacity="0" stroke="#000000" stroke-width="1" stroke-opacity="0"></use></g></g><g><use xlink:href="#b1tHTd21r0" opacity="1" fill="#bc8358" fill-opacity="1"></use><g><use xlink:href="#b1tHTd21r0" opacity="1" fill-opacity="0" stroke="#000000" stroke-width="1" stroke-opacity="0"></use></g></g><g><use xlink:href="#b1BA4WfRwC" opacity="1" fill="#bc8358" fill-opacity="1"></use><g><use xlink:href="#b1BA4WfRwC" opacity="1" fill-opacity="0" stroke="#000000" stroke-width="1" stroke-opacity="0"></use></g></g><g><use xlink:href="#c1e048XvT9" opacity="1" fill="#bc8358" fill-opacity="1"></use><g><use xlink:href="#c1e048XvT9" opacity="1" fill-opacity="0" stroke="#000000" stroke-width="1" stroke-opacity="0"></use></g></g><g><use xlink:href="#frs38NUhm" opacity="1" fill="#bc8358" fill-opacity="1"></use><g><use xlink:href="#frs38NUhm" opacity="1" fill-opacity="0" stroke="#000000" stroke-width="1" stroke-opacity="0"></use></g></g><g><use xlink:href="#dqFJrXwYN" opacity="1" fill="#bc8358" fill-opacity="1"></use><g><use xlink:href="#dqFJrXwYN" opacity="1" fill-opacity="0" stroke="#000000" stroke-width="1" stroke-opacity="0"></use></g></g><g><use xlink:href="#b1TFFsuSHi" opacity="1" fill="#bc8358" fill-opacity="1"></use><g><use xlink:href="#b1TFFsuSHi" opacity="1" fill-opacity="0" stroke="#000000" stroke-width="1" stroke-opacity="0"></use></g></g><g><use xlink:href="#f3g7Iz1E05" opacity="1" fill="#bc8358" fill-opacity="1"></use><g><use xlink:href="#f3g7Iz1E05" opacity="1" fill-opacity="0" stroke="#000000" stroke-width="1" stroke-opacity="0"></use></g></g><g><use xlink:href="#bMt0Lp36W" opacity="1" fill="#bc8358" fill-opacity="1"></use><g><use xlink:href="#bMt0Lp36W" opacity="1" fill-opacity="0" stroke="#000000" stroke-width="1" stroke-opacity="0"></use></g></g><g><use xlink:href="#a16uUTvZhJ" opacity="1" fill="#bc8358" fill-opacity="1"></use><g><use xlink:href="#a16uUTvZhJ" opacity="1" fill-opacity="0" stroke="#000000" stroke-width="1" stroke-opacity="0"></use></g></g><g><use xlink:href="#a2EQMW9aGZ" opacity="1" fill="#bc8358" fill-opacity="1"></use><g><use xlink:href="#a2EQMW9aGZ" opacity="1" fill-opacity="0" stroke="#000000" stroke-width="1" stroke-opacity="0"></use></g></g><g><use xlink:href="#a4xaiZOlRV" opacity="1" fill="#bc8358" fill-opacity="1"></use><g><use xlink:href="#a4xaiZOlRV" opacity="1" fill-opacity="0" stroke="#000000" stroke-width="1" stroke-opacity="0"></use></g></g><g><use xlink:href="#aFmL0ngGx" opacity="1" fill="#bc8358" fill-opacity="1"></use><g><use xlink:href="#aFmL0ngGx" opacity="1" fill-opacity="0" stroke="#000000" stroke-width="1" stroke-opacity="0"></use></g></g><g><use xlink:href="#am0zkhEZI" opacity="1" fill="#bc8358" fill-opacity="1"></use><g><use xlink:href="#am0zkhEZI" opacity="1" fill-opacity="0" stroke="#000000" stroke-width="1" stroke-opacity="0"></use></g></g><g><use xlink:href="#d3ECeA5kQl" opacity="1" fill="#bc8358" fill-opacity="1"></use><g><use xlink:href="#d3ECeA5kQl" opacity="1" fill-opacity="0" stroke="#000000" stroke-width="1" stroke-opacity="0"></use></g></g><g><use xlink:href="#b3oAHpWnST" opacity="1" fill="#bc8358" fill-opacity="1"></use><g><use xlink:href="#b3oAHpWnST" opacity="1" fill-opacity="0" stroke="#000000" stroke-width="1" stroke-opacity="0"></use></g></g><g><use xlink:href="#bgqTtCpx8" opacity="1" fill="#bc8358" fill-opacity="1"></use><g><use xlink:href="#bgqTtCpx8" opacity="1" fill-opacity="0" stroke="#000000" stroke-width="1" stroke-opacity="0"></use></g></g><g><use xlink:href="#a7oyxcTPP5" opacity="1" fill="#bc8358" fill-opacity="1"></use><g><use xlink:href="#a7oyxcTPP5" opacity="1" fill-opacity="0" stroke="#000000" stroke-width="1" stroke-opacity="0"></use></g></g><g><use xlink:href="#ap8WVQXKW" opacity="1" fill="#bc8358" fill-opacity="1"></use><g><use xlink:href="#ap8WVQXKW" opacity="1" fill-opacity="0" stroke="#000000" stroke-width="1" stroke-opacity="0"></use></g></g><g><use xlink:href="#feuRtq4OV" opacity="1" fill="#bc8358" fill-opacity="1"></use><g><use xlink:href="#feuRtq4OV" opacity="1" fill-opacity="0" stroke="#000000" stroke-width="1" stroke-opacity="0"></use></g></g><g><use xlink:href="#a8W3OS3Rt" opacity="1" fill="url(#gradientd4U236GnWQ)"></use><g><use xlink:href="#a8W3OS3Rt" opacity="1" fill-opacity="0" stroke="#000000" stroke-width="1" stroke-opacity="0"></use></g></g><g><use xlink:href="#c1bKl447xY" opacity="1" fill="url(#gradienta19mi1xOW)"></use><g><use xlink:href="#c1bKl447xY" opacity="1" fill-opacity="0" stroke="#000000" stroke-width="1" stroke-opacity="0"></use></g></g><g><use xlink:href="#c61wxTD9FK" opacity="1" fill="#662f09" fill-opacity="1"></use><g><use xlink:href="#c61wxTD9FK" opacity="1" fill-opacity="0" stroke="#000000" stroke-width="1" stroke-opacity="0"></use></g></g><g><use xlink:href="#c6x8LHqA0" opacity="1" fill="#c08657" fill-opacity="1"></use><g><use xlink:href="#c6x8LHqA0" opacity="1" fill-opacity="0" stroke="#000000" stroke-width="1" stroke-opacity="0"></use></g></g><g><use xlink:href="#chKxVB7Cl" opacity="1" fill="#703711" fill-opacity="1"></use><g><use xlink:href="#chKxVB7Cl" opacity="1" fill-opacity="0" stroke="#000000" stroke-width="1" stroke-opacity="0"></use></g></g><g><use xlink:href="#g1u6RVHZq9" opacity="1" fill="#512a10" fill-opacity="1"></use><g><use xlink:href="#g1u6RVHZq9" opacity="1" fill-opacity="0" stroke="#000000" stroke-width="1" stroke-opacity="0"></use></g></g><g><use xlink:href="#l66ojcaQEQ" opacity="1" fill="#ffca8f" fill-opacity="1"></use><g><use xlink:href="#l66ojcaQEQ" opacity="1" fill-opacity="0" stroke="#000000" stroke-width="1" stroke-opacity="0"></use></g></g><g><use xlink:href="#c15L5CDTF" opacity="1" fill="#994500" fill-opacity="1"></use><g><use xlink:href="#c15L5CDTF" opacity="1" fill-opacity="0" stroke="#000000" stroke-width="1" stroke-opacity="0"></use></g></g><g><use xlink:href="#b20aKGvSPN" opacity="1" fill="#ffca8f" fill-opacity="1"></use><g><use xlink:href="#b20aKGvSPN" opacity="1" fill-opacity="0" stroke="#000000" stroke-width="1" stroke-opacity="0"></use></g></g><g><use xlink:href="#c3FACKOcGq" opacity="1" fill="#996441" fill-opacity="1"></use><g><use xlink:href="#c3FACKOcGq" opacity="1" fill-opacity="0" stroke="#000000" stroke-width="1" stroke-opacity="0"></use></g></g><g><use xlink:href="#cjxCZOQ0u" opacity="1" fill="#000000" fill-opacity="1"></use><g><use xlink:href="#cjxCZOQ0u" opacity="1" fill-opacity="0" stroke="#000000" stroke-width="1" stroke-opacity="0"></use></g></g><g><use xlink:href="#e3kVIhVJE4" opacity="1" fill="#bc8358" fill-opacity="1"></use><g><use xlink:href="#e3kVIhVJE4" opacity="1" fill-opacity="0" stroke="#000000" stroke-width="1" stroke-opacity="0"></use></g></g><g><use xlink:href="#b3CRtZAtqh" opacity="1" fill="#bc8358" fill-opacity="1"></use><g><use xlink:href="#b3CRtZAtqh" opacity="1" fill-opacity="0" stroke="#000000" stroke-width="1" stroke-opacity="0"></use></g></g><g><use xlink:href="#g3dQ9AXv" opacity="1" fill="#d59867" fill-opacity="1"></use><g><use xlink:href="#g3dQ9AXv" opacity="1" fill-opacity="0" stroke="#000000" stroke-width="1" stroke-opacity="0"></use></g></g><g><use xlink:href="#a1SAobESyk" opacity="1" fill="#996441" fill-opacity="1"></use><g><use xlink:href="#a1SAobESyk" opacity="1" fill-opacity="0" stroke="#000000" stroke-width="1" stroke-opacity="0"></use></g></g><g><use xlink:href="#b205ZK55ul" opacity="1" fill="#996441" fill-opacity="1"></use><g><use xlink:href="#b205ZK55ul" opacity="1" fill-opacity="0" stroke="#000000" stroke-width="1" stroke-opacity="0"></use></g></g><g><use xlink:href="#g4jzZECQ14" opacity="1" fill="url(#gradientb1msKl1JRZ)"></use><g><use xlink:href="#g4jzZECQ14" opacity="1" fill-opacity="0" stroke="#000000" stroke-width="1" stroke-opacity="0"></use></g></g><g><use xlink:href="#b4NSgtSX6d" opacity="1" fill="#662f09" fill-opacity="1"></use><g><use xlink:href="#b4NSgtSX6d" opacity="1" fill-opacity="0" stroke="#000000" stroke-width="1" stroke-opacity="0"></use></g></g><g><use xlink:href="#j4e5GOPcV" opacity="1" fill="url(#gradienta504YKA7gJ)"></use><g><use xlink:href="#j4e5GOPcV" opacity="1" fill-opacity="0" stroke="#000000" stroke-width="1" stroke-opacity="0"></use></g></g><g><use xlink:href="#fhi79M4Zx" opacity="1" fill="#662f09" fill-opacity="1"></use><g><use xlink:href="#fhi79M4Zx" opacity="1" fill-opacity="0" stroke="#000000" stroke-width="1" stroke-opacity="0"></use></g></g><g><use xlink:href="#i3UhF0ljVX" opacity="1" fill="#ffffff" fill-opacity="1"></use><g><use xlink:href="#i3UhF0ljVX" opacity="1" fill-opacity="0" stroke="#000000" stroke-width="1" stroke-opacity="0"></use></g></g><g><use xlink:href="#ht4vbYrTA" opacity="1" fill="#ffffff" fill-opacity="1"></use><g><use xlink:href="#ht4vbYrTA" opacity="1" fill-opacity="0" stroke="#000000" stroke-width="1" stroke-opacity="0"></use></g></g><g><use xlink:href="#e43hmuRFOT" opacity="1" fill="#000000" fill-opacity="1"></use><g><use xlink:href="#e43hmuRFOT" opacity="1" fill-opacity="0" stroke="#000000" stroke-width="1" stroke-opacity="0"></use></g></g><g><use xlink:href="#b4FILLYAk" opacity="1" fill="#000000" fill-opacity="1"></use><g><use xlink:href="#b4FILLYAk" opacity="1" fill-opacity="0" stroke="#000000" stroke-width="1" stroke-opacity="0"></use></g></g><g><use xlink:href="#e1cwVyQk0q" opacity="1" fill="#000000" fill-opacity="1"></use><g><use xlink:href="#e1cwVyQk0q" opacity="1" fill-opacity="0" stroke="#000000" stroke-width="1" stroke-opacity="0"></use></g></g><g><use xlink:href="#a1g040mqvK" opacity="1" fill="#000000" fill-opacity="1"></use><g><use xlink:href="#a1g040mqvK" opacity="1" fill-opacity="0" stroke="#000000" stroke-width="1" stroke-opacity="0"></use></g></g><g><use xlink:href="#a1PYJJsaK" opacity="1" fill="#000000" fill-opacity="1"></use><g><use xlink:href="#a1PYJJsaK" opacity="1" fill-opacity="0" stroke="#000000" stroke-width="1" stroke-opacity="0"></use></g></g><g><use xlink:href="#fYKaXUD96" opacity="1" fill="#000000" fill-opacity="1"></use><g><use xlink:href="#fYKaXUD96" opacity="1" fill-opacity="0" stroke="#000000" stroke-width="1" stroke-opacity="0"></use></g></g><g><use xlink:href="#d21pryJljG" opacity="1" fill="#996441" fill-opacity="1"></use><g><use xlink:href="#d21pryJljG" opacity="1" fill-opacity="0" stroke="#000000" stroke-width="1" stroke-opacity="0"></use></g></g><g><use xlink:href="#a4ErJ2sxtQ" opacity="1" fill="#000000" fill-opacity="1"></use><g><use xlink:href="#a4ErJ2sxtQ" opacity="1" fill-opacity="0" stroke="#000000" stroke-width="1" stroke-opacity="0"></use></g></g><g><use xlink:href="#axlceTylp" opacity="1" fill="#bc8358" fill-opacity="1"></use><g><use xlink:href="#axlceTylp" opacity="1" fill-opacity="0" stroke="#000000" stroke-width="1" stroke-opacity="0"></use></g></g><g><use xlink:href="#fcpMLCqYw" opacity="1" fill="#bc8358" fill-opacity="1"></use><g><use xlink:href="#fcpMLCqYw" opacity="1" fill-opacity="0" stroke="#000000" stroke-width="1" stroke-opacity="0"></use></g></g><g><use xlink:href="#m2FOQt4xod" opacity="1" fill="#000000" fill-opacity="1"></use><g><use xlink:href="#m2FOQt4xod" opacity="1" fill-opacity="0" stroke="#000000" stroke-width="1" stroke-opacity="0"></use></g></g><g><use xlink:href="#d1Z7geq7n6" opacity="1" fill="#ffffff" fill-opacity="1"></use><g><use xlink:href="#d1Z7geq7n6" opacity="1" fill-opacity="0" stroke="#000000" stroke-width="1" stroke-opacity="0"></use></g></g><g><use xlink:href="#a1x22EnZGB" opacity="1" fill="#ffffff" fill-opacity="1"></use><g><use xlink:href="#a1x22EnZGB" opacity="1" fill-opacity="0" stroke="#000000" stroke-width="1" stroke-opacity="0"></use></g></g><g><use xlink:href="#elST5HcDD" opacity="1" fill="#c08657" fill-opacity="1"></use><g><use xlink:href="#elST5HcDD" opacity="1" fill-opacity="0" stroke="#000000" stroke-width="1" stroke-opacity="0"></use></g></g><g><use xlink:href="#cphtoFlf" opacity="1" fill="#c08657" fill-opacity="1"></use><g><use xlink:href="#cphtoFlf" opacity="1" fill-opacity="0" stroke="#000000" stroke-width="1" stroke-opacity="0"></use></g></g><g><use xlink:href="#abOQw0NMn" opacity="1" fill="#c08657" fill-opacity="1"></use><g><use xlink:href="#abOQw0NMn" opacity="1" fill-opacity="0" stroke="#000000" stroke-width="1" stroke-opacity="0"></use></g></g><g><use xlink:href="#ijtNtF3sU" opacity="1" fill="#000000" fill-opacity="1"></use><g><use xlink:href="#ijtNtF3sU" opacity="1" fill-opacity="0" stroke="#000000" stroke-width="1" stroke-opacity="0"></use></g></g><g><use xlink:href="#k119upa4Ey" opacity="1" fill="#000000" fill-opacity="1"></use><g><use xlink:href="#k119upa4Ey" opacity="1" fill-opacity="0" stroke="#000000" stroke-width="1" stroke-opacity="0"></use></g></g><g><use xlink:href="#a1u0kziXgc" opacity="1" fill="#000000" fill-opacity="1"></use><g><use xlink:href="#a1u0kziXgc" opacity="1" fill-opacity="0" stroke="#000000" stroke-width="1" stroke-opacity="0"></use></g></g><g><use xlink:href="#aDtC2HrRo" opacity="1" fill="#000000" fill-opacity="1"></use><g><use xlink:href="#aDtC2HrRo" opacity="1" fill-opacity="0" stroke="#000000" stroke-width="1" stroke-opacity="0"></use></g></g><g><use xlink:href="#c4V5nlXmZC" opacity="1" fill="#000000" fill-opacity="1"></use><g><use xlink:href="#c4V5nlXmZC" opacity="1" fill-opacity="0" stroke="#000000" stroke-width="1" stroke-opacity="0"></use></g></g><g><use xlink:href="#guJPNBi5" opacity="1" fill="#000000" fill-opacity="1"></use><g><use xlink:href="#guJPNBi5" opacity="1" fill-opacity="0" stroke="#000000" stroke-width="1" stroke-opacity="0"></use></g></g><g><use xlink:href="#b6XCiw8zpU" opacity="1" fill="#000000" fill-opacity="1"></use><g><use xlink:href="#b6XCiw8zpU" opacity="1" fill-opacity="0" stroke="#000000" stroke-width="1" stroke-opacity="0"></use></g></g><g><use xlink:href="#d2jJ3XW6R" opacity="1" fill="#000000" fill-opacity="1"></use><g><use xlink:href="#d2jJ3XW6R" opacity="1" fill-opacity="0" stroke="#000000" stroke-width="1" stroke-opacity="0"></use></g></g><g><use xlink:href="#b2IJsZrd5A" opacity="1" fill="#ffffff" fill-opacity="1"></use><g><use xlink:href="#b2IJsZrd5A" opacity="1" fill-opacity="0" stroke="#000000" stroke-width="1" stroke-opacity="0"></use></g></g><g><use xlink:href="#e5gAY8tYcc" opacity="1" fill="url(#gradienta68RXWRWp1)"></use><g><use xlink:href="#e5gAY8tYcc" opacity="1" fill-opacity="0" stroke="#000000" stroke-width="1" stroke-opacity="0"></use></g></g><g><use xlink:href="#b3Ck4lzbTZ" opacity="1" fill="#ffffff" fill-opacity="1"></use><g><use xlink:href="#b3Ck4lzbTZ" opacity="1" fill-opacity="0" stroke="#000000" stroke-width="1" stroke-opacity="0"></use></g></g><g><use xlink:href="#a1VFLYLXSv" opacity="1" fill="#ffffff" fill-opacity="1"></use><g><use xlink:href="#a1VFLYLXSv" opacity="1" fill-opacity="0" stroke="#000000" stroke-width="1" stroke-opacity="0"></use></g></g><g><use xlink:href="#b4e7NwARQT" opacity="1" fill="#ffffff" fill-opacity="1"></use><g><use xlink:href="#b4e7NwARQT" opacity="1" fill-opacity="0" stroke="#000000" stroke-width="1" stroke-opacity="0"></use></g></g><g><use xlink:href="#e72g1rnTjs" opacity="1" fill="#ffffff" fill-opacity="1"></use><g><use xlink:href="#e72g1rnTjs" opacity="1" fill-opacity="0" stroke="#000000" stroke-width="1" stroke-opacity="0"></use></g></g><g><use xlink:href="#a8ps8ZlFM" opacity="1" fill="#ffffff" fill-opacity="1"></use><g><use xlink:href="#a8ps8ZlFM" opacity="1" fill-opacity="0" stroke="#000000" stroke-width="1" stroke-opacity="0"></use></g></g><g><use xlink:href="#d1ovKEXRXS" opacity="1" fill="#ffffff" fill-opacity="1"></use><g><use xlink:href="#d1ovKEXRXS" opacity="1" fill-opacity="0" stroke="#000000" stroke-width="1" stroke-opacity="0"></use></g></g><g><use xlink:href="#a2LgHTGAq2" opacity="1" fill="#ffffff" fill-opacity="1"></use><g><use xlink:href="#a2LgHTGAq2" opacity="1" fill-opacity="0" stroke="#000000" stroke-width="1" stroke-opacity="0"></use></g></g><g><use xlink:href="#e2S8uKEkGE" opacity="1" fill="#ffffff" fill-opacity="1"></use><g><use xlink:href="#e2S8uKEkGE" opacity="1" fill-opacity="0" stroke="#000000" stroke-width="1" stroke-opacity="0"></use></g></g><g><use xlink:href="#d3uEKCa73G" opacity="1" fill="#ffffff" fill-opacity="1"></use><g><use xlink:href="#d3uEKCa73G" opacity="1" fill-opacity="0" stroke="#000000" stroke-width="1" stroke-opacity="0"></use></g></g></g></g></svg>